<svg width="500" height="500" viewBox="0 0 500 500" fill="none" xmlns="http://www.w3.org/2000/svg">
<g clip-path="url(#clip0_3095_27)">
<path d="M500 0H0V500H500V0Z" fill="white"/>
<mask id="mask0_3095_27" style="mask-type:luminance" maskUnits="userSpaceOnUse" x="0" y="0" width="500" height="500">
<path d="M500 0H0V500H500V0Z" fill="white"/>
</mask>
<g mask="url(#mask0_3095_27)">
<path d="M511.5 -16.5H-11.5V516.5H511.5V-16.5Z" fill="white"/>
<path d="M250 641.872C471.933 641.872 651.846 578.272 651.846 499.817C651.846 421.362 471.933 357.762 250 357.762C28.0667 357.762 -151.846 421.362 -151.846 499.817C-151.846 578.272 28.0667 641.872 250 641.872Z" fill="#A5A7AA"/>
<path d="M250 561.284C402.628 561.284 526.358 517.544 526.358 463.59C526.358 409.635 402.628 365.896 250 365.896C97.3718 365.896 -26.3579 409.635 -26.3579 463.59C-26.3579 517.544 97.3718 561.284 250 561.284Z" fill="#CFD1D2"/>
<path d="M249.437 472.316C303.378 472.316 347.106 456.858 347.106 437.79C347.106 418.721 303.378 403.264 249.437 403.264C195.496 403.264 151.768 418.721 151.768 437.79C151.768 456.858 195.496 472.316 249.437 472.316Z" fill="#BABCBE"/>
<path d="M426.432 461.492C454.157 461.492 476.632 453.547 476.632 443.746C476.632 433.945 454.157 426 426.432 426C398.707 426 376.232 433.945 376.232 443.746C376.232 453.547 398.707 461.492 426.432 461.492Z" fill="#BABCBE"/>
<path d="M91.4491 439.966C111.623 439.966 127.977 434.184 127.977 427.053C127.977 419.921 111.623 414.14 91.4491 414.14C71.2753 414.14 54.9211 419.921 54.9211 427.053C54.9211 434.184 71.2753 439.966 91.4491 439.966Z" fill="#BABCBE"/>
<path d="M106.639 468.262C106.639 475.851 89.236 482.003 67.769 482.003C46.302 482.003 28.899 475.851 28.899 468.262C28.899 460.673 46.302 454.521 67.769 454.521C89.236 454.521 106.639 460.673 106.639 468.262Z" fill="#BABCBE"/>
<path d="M96.71 463.55C112.18 463.55 124.721 459.117 124.721 453.648C124.721 448.179 112.18 443.746 96.71 443.746C81.2399 443.746 68.699 448.179 68.699 453.648C68.699 459.117 81.2399 463.55 96.71 463.55Z" fill="#BABCBE"/>
<path d="M367.923 402.444L369.644 405.93L373.491 406.49L370.707 409.203L371.365 413.035L367.923 411.226L364.482 413.035L365.139 409.203L362.355 406.49L366.202 405.93L367.923 402.444Z" fill="#FFDC15"/>
<path d="M150.678 -5.61133C150.678 -5.61133 178.903 1.72167 166.465 36.3887C154.027 71.0557 117.385 78.8777 124.706 104.3C132.027 129.722 160.427 127.055 156.56 145.055C152.693 163.055 131.531 169.594 134.36 189.555C136.754 206.447 179.701 213.555 169.597 229.105C151.911 256.322 213.98 275.696 243.026 283.893C243.026 283.893 155.402 269.86 150.54 242.055C148.029 227.692 103.481 230.093 89.29 215.055C71.36 196.055 108.728 189.61 96.711 177.333C84.693 165.055 34.027 155.055 27.36 126.389C20.693 97.7217 36.027 81.0557 47.36 69.7217C58.693 58.3887 -41.307 71.0547 -37.973 -5.61133H150.678Z" fill="url(#paint0_linear_3095_27)"/>
<path d="M400.799 419.756C420.973 419.756 437.327 413.974 437.327 406.843C437.327 399.711 420.973 393.93 400.799 393.93C380.625 393.93 364.271 399.711 364.271 406.843C364.271 413.974 380.625 419.756 400.799 419.756Z" fill="#BABCBE"/>
<path d="M243.369 414.626C251.099 414.416 256.169 414.426 256.259 414.416L256.279 394.416C255.369 394.416 233.219 394.406 209.889 396.436C189.819 398.176 176.699 400.726 168.019 403.736C165.949 404.436 164.139 405.176 162.539 405.946C155.399 409.336 152.579 413.156 151.059 416.986C149.279 421.476 149.849 426.296 152.619 430.206C156.859 436.216 166.459 441.966 207.549 443.416C214.519 443.666 221.329 443.746 227.349 443.746C239.509 443.746 248.469 443.406 249.019 443.386L248.249 423.396C248.069 423.406 230.199 424.076 210.929 423.516C196.159 423.086 186.369 422.096 179.939 421.066C186.739 419.346 197.629 417.456 214.929 416.086C225.489 415.246 235.729 414.836 243.369 414.626Z" fill="#056194"/>
<path d="M256.279 394.416L252.429 412.236L243.369 414.626C235.729 414.836 225.489 415.246 214.929 416.086C197.629 417.456 186.739 419.346 179.939 421.066C179.939 421.066 173.859 419.536 173.359 417.046C173.359 417.046 179.699 405.806 162.539 405.946L168.019 403.736C176.699 400.726 189.819 398.176 209.889 396.436C233.219 394.406 255.369 394.416 256.279 394.416Z" fill="#004F72"/>
<path d="M294.809 386.056H255.979C256.269 382.566 256.209 379.246 255.909 376.126C255.279 369.506 253.569 363.826 251.809 359.466C249.419 353.526 246.919 350.056 246.919 350.056L281.949 334.556C284.469 338.786 286.499 343.296 288.119 347.826C291.509 357.236 293.179 366.696 294.009 373.856C294.849 381.156 294.809 386.056 294.809 386.056Z" fill="#056194"/>
<path d="M288.119 347.826C280.149 356.656 263.299 358.966 251.809 359.466C249.419 353.526 246.919 350.056 246.919 350.056L281.949 334.556C284.469 338.786 286.499 343.296 288.119 347.826Z" fill="#004F72"/>
<path d="M253.885 365.509C253.885 365.509 273.445 372.125 291.527 359.466C291.527 359.466 278.412 376.463 253.885 365.509Z" fill="#004F72"/>
<path d="M294.809 386.056H255.979C256.269 382.566 256.209 379.246 255.909 376.126L256.279 375.976C256.279 375.976 277.149 367.916 294.009 373.856C294.849 381.156 294.809 386.056 294.809 386.056Z" fill="#004F72"/>
<path d="M384.881 398.934C384.882 398.871 384.878 398.808 384.881 398.745V396.068L386.058 395.399C386.185 395.211 386.312 395.023 386.461 394.84C389.676 390.876 396.704 389.556 402.159 391.893C404.463 392.88 406.109 394.363 407.01 396.044L407.805 396.068V399.37H407.798C407.733 400.712 407.22 402.062 406.215 403.3C403 407.264 395.972 408.584 390.517 406.247C387.021 404.75 385.029 402.113 384.89 399.37H384.882L384.881 398.934Z" fill="#808083"/>
<path d="M386.46 391.838C383.245 395.802 385.061 400.909 390.516 403.246C395.971 405.582 402.999 404.263 406.214 400.299C409.429 396.335 407.613 391.227 402.158 388.891C396.704 386.554 389.675 387.874 386.46 391.838Z" fill="#A5A7AA"/>
<path d="M281.932 316.053C281.932 316.053 281.988 316.201 282.097 316.488C282.16 316.653 282.239 316.858 282.333 317.102C282.417 317.308 282.515 317.547 282.625 317.817C283.07 318.88 283.717 320.379 284.603 322.201C285.479 324.035 286.593 326.199 287.947 328.62C289.282 331.052 290.913 333.703 292.739 336.551C294.608 339.37 296.678 342.383 299.041 345.432C300.2 346.971 301.468 348.495 302.74 350.062C304.068 351.588 305.371 353.184 306.813 354.708C309.605 357.833 312.715 360.849 315.92 363.837C319.186 366.765 322.581 369.641 326.153 372.279L328.827 374.255C329.727 374.899 330.656 375.502 331.566 376.125C332.484 376.736 333.381 377.371 334.309 377.954C335.243 378.527 336.174 379.099 337.101 379.668C338.933 380.838 340.84 381.849 342.697 382.881C344.536 383.945 346.448 384.823 348.287 385.747C350.116 386.695 351.993 387.462 353.801 388.261C354.711 388.649 355.595 389.064 356.495 389.414C357.397 389.758 358.287 390.097 359.166 390.432C362.652 391.836 366.06 392.837 369.157 393.85C370.73 394.28 372.237 394.692 373.67 395.084C374.385 395.278 375.082 395.468 375.76 395.652C376.445 395.804 377.111 395.952 377.756 396.095C380.341 396.641 382.563 397.224 384.438 397.494C388.159 398.129 390.285 398.493 390.285 398.493L391.503 392.326C391.503 392.326 389.511 391.773 386.026 390.805C384.273 390.371 382.216 389.594 379.829 388.834C379.235 388.638 378.621 388.435 377.989 388.226C377.368 387.987 376.73 387.741 376.074 387.488C374.766 386.984 373.391 386.453 371.957 385.9C369.149 384.648 366.071 383.4 362.969 381.763C362.187 381.371 361.395 380.973 360.593 380.57C359.794 380.163 359.015 379.691 358.213 379.249C356.62 378.339 354.967 377.466 353.377 376.42C351.775 375.397 350.111 374.426 348.53 373.277C346.931 372.16 345.291 371.071 343.736 369.834C342.948 369.233 342.157 368.63 341.364 368.025C340.578 367.413 339.825 366.75 339.052 366.115C338.288 365.468 337.506 364.843 336.754 364.179L334.529 362.153C331.56 359.458 328.785 356.567 326.14 353.664C323.555 350.7 321.066 347.751 318.878 344.725C317.738 343.252 316.733 341.713 315.698 340.255C314.719 338.754 313.739 337.305 312.86 335.846C311.058 332.958 309.521 330.135 308.145 327.523C306.816 324.886 305.639 322.458 304.717 320.269C303.775 318.09 303.026 316.175 302.467 314.608C301.893 313.039 301.515 311.823 301.275 311.031C301.218 310.836 301.168 310.664 301.124 310.515C301.095 310.402 301.071 310.307 301.051 310.23C300.998 310.032 300.971 309.93 300.971 309.93L281.932 316.053Z" fill="#004F72"/>
<path d="M389.357 394.695L391.016 395.777C391.253 395.351 391.551 394.896 391.83 394.47L392.139 394.012L392.387 393.717L392.873 393.148L392.994 393.006L393.054 392.935L393.084 392.9L393.243 392.694L393.266 392.672L393.628 392.317L394.355 391.62C396.354 389.809 398.775 388.366 401.327 387.426L410.708 381.855H423.215V388.859L421.031 391.893C421.031 391.893 420.717 391.827 420.129 391.702C419.982 391.671 419.818 391.636 419.637 391.598C419.456 391.559 419.248 391.51 419.09 391.505C418.756 391.47 418.372 391.43 417.942 391.385C417.476 391.36 416.961 391.332 416.4 391.302C415.836 391.324 415.251 391.289 414.623 391.355C413.379 391.403 412.014 391.66 410.654 392.025C409.298 392.415 407.94 392.966 406.739 393.704C405.556 394.456 404.491 395.345 403.739 396.4L403.469 396.8L403.329 396.999L403.32 397.011C403.604 396.642 403.392 396.92 403.452 396.842L403.429 396.88L403.383 396.956L403.292 397.109L402.926 397.723C402.869 397.822 402.795 397.936 402.751 398.024L402.716 398.191C402.669 398.423 402.577 398.574 402.522 398.906C402.453 399.196 402.372 399.483 402.37 399.78C402.26 400.949 402.452 402.124 402.932 403.22C403.409 404.319 404.164 405.324 405.083 406.217C405.294 406.454 405.565 406.651 405.825 406.856C406.061 407.079 406.364 407.252 406.635 407.451C406.891 407.665 407.238 407.798 407.528 407.985L407.641 408.051L407.697 408.085L407.725 408.102C407.601 408.053 408.021 408.223 407.452 407.994L407.476 408.005L407.865 408.178L408.639 408.522C408.756 408.573 408.92 408.65 408.999 408.679L409.181 408.74C409.301 408.783 409.419 408.83 409.536 408.882C409.628 408.939 409.809 408.991 409.986 409.043L410.504 409.207C411.205 409.399 411.918 409.561 412.643 409.671C413.601 409.814 414.568 409.869 415.512 409.862L415.372 409.735L430.568 401.679V408.683C430.568 408.683 430.452 408.942 430.188 409.424C430.046 409.66 429.92 409.98 429.668 410.311C429.414 410.648 429.122 411.035 428.795 411.469C428.419 411.881 427.973 412.332 427.457 412.813C427.178 413.042 426.888 413.28 426.588 413.526C426.433 413.649 426.275 413.775 426.115 413.902C425.939 414.017 425.761 414.134 425.579 414.253C424.152 415.243 422.251 416.157 419.966 416.885C417.679 417.603 414.968 418.097 412.012 418.139C411.277 418.127 410.52 418.151 409.762 418.09C409.007 418.026 408.228 417.982 407.463 417.859C407.079 417.797 406.693 417.734 406.306 417.672C405.921 417.609 405.535 417.548 405.087 417.429C404.657 417.317 404.225 417.204 403.79 417.09L403.141 416.909L402.699 416.77L401.87 416.504L401.453 416.37L401.427 416.362L401.106 416.232L401.039 416.203L400.905 416.145L400.636 416.028C399.929 415.704 399.176 415.419 398.51 415.029C397.125 414.305 395.822 413.453 394.696 412.476C392.392 410.549 390.744 408.17 389.912 405.665C389.607 404.677 389.433 403.671 389.377 402.667L389.354 402.641V394.695H389.357Z" fill="#0588B6"/>
<path d="M423.214 381.857C423.214 381.857 422.96 381.708 422.484 381.427C422.365 381.357 422.232 381.279 422.086 381.193C421.94 381.107 421.795 381.013 421.542 380.912C421.08 380.71 420.537 380.478 419.911 380.223C419.312 380.017 418.636 379.793 417.879 379.574C417.491 379.481 417.088 379.385 416.67 379.285C416.458 379.237 416.242 379.187 416.022 379.138C415.798 379.104 415.569 379.069 415.337 379.033C413.479 378.716 411.276 378.584 408.875 378.772C406.472 378.944 403.865 379.46 401.328 380.424C398.776 381.364 396.355 382.808 394.356 384.618L393.629 385.316L393.267 385.671L393.244 385.693L393.085 385.899L393.055 385.934L392.995 386.005L392.874 386.147L392.388 386.716L392.14 387.011L391.831 387.469C391.434 388.075 390.991 388.745 390.752 389.3C390.465 389.881 390.185 390.47 390.007 391.083C389.177 393.515 389.139 396.147 389.915 398.664C390.747 401.169 392.395 403.548 394.699 405.475C395.825 406.452 397.128 407.304 398.513 408.028C399.179 408.418 399.932 408.703 400.639 409.027L400.908 409.144L401.042 409.202L401.109 409.231L401.43 409.361L401.456 409.369L401.873 409.503L402.702 409.769L403.144 409.908L403.793 410.089C404.227 410.202 404.659 410.315 405.09 410.428C405.538 410.547 405.924 410.608 406.309 410.671C406.697 410.734 407.083 410.796 407.466 410.858C408.231 410.981 409.01 411.025 409.765 411.089C410.522 411.15 411.279 411.126 412.015 411.138C414.971 411.095 417.681 410.601 419.969 409.884C422.254 409.156 424.155 408.242 425.582 407.252C425.763 407.133 425.942 407.016 426.118 406.901C426.278 406.773 426.436 406.648 426.591 406.525C426.892 406.278 427.182 406.04 427.46 405.812C427.976 405.331 428.422 404.881 428.798 404.468C429.125 404.034 429.417 403.647 429.671 403.31C429.923 402.979 430.049 402.659 430.191 402.423C430.454 401.94 430.571 401.682 430.571 401.682L425.994 399.722C425.994 399.722 425.757 399.852 425.359 400.098C424.977 400.353 424.35 400.675 423.601 401.06C423.179 401.22 422.772 401.427 422.299 401.614C421.792 401.772 421.307 401.982 420.724 402.121C419.617 402.459 418.313 402.691 416.938 402.802C415.563 402.916 414.092 402.884 412.645 402.668C411.92 402.558 411.207 402.396 410.506 402.204L409.988 402.04C409.81 401.988 409.63 401.936 409.537 401.879C409.42 401.827 409.302 401.78 409.182 401.737L409 401.675C408.922 401.646 408.758 401.569 408.64 401.518L407.866 401.175L407.477 401.002L407.453 400.991C408.023 401.22 407.603 401.05 407.726 401.099L407.698 401.082L407.642 401.049L407.529 400.983C407.239 400.797 406.892 400.663 406.636 400.45C406.365 400.251 406.063 400.078 405.827 399.855C405.567 399.65 405.296 399.453 405.085 399.216C404.166 398.323 403.411 397.318 402.934 396.219C402.453 395.123 402.261 393.948 402.372 392.779C402.374 392.482 402.455 392.196 402.524 391.905C402.579 391.573 402.671 391.422 402.718 391.19L402.753 391.023C402.797 390.935 402.871 390.821 402.928 390.722L403.294 390.108L403.385 389.955L403.431 389.879L403.454 389.841C403.394 389.919 403.605 389.641 403.322 390.01L403.331 389.998L403.47 389.801L403.74 389.401C404.493 388.346 405.557 387.458 406.74 386.705C407.94 385.968 409.299 385.416 410.655 385.026C412.015 384.66 413.38 384.404 414.624 384.356C415.252 384.29 415.836 384.325 416.401 384.303C416.962 384.333 417.478 384.361 417.943 384.386C418.373 384.431 418.757 384.471 419.091 384.506C419.249 384.512 419.457 384.561 419.638 384.599C419.819 384.637 419.983 384.672 420.13 384.703C420.718 384.828 421.032 384.894 421.032 384.894L423.214 381.857Z" fill="#00BBE8"/>
<path d="M384.881 391.93C384.882 391.867 384.878 391.804 384.881 391.741V389.064L386.058 388.395C386.185 388.207 386.312 388.019 386.461 387.835C389.676 383.871 396.704 382.552 402.159 384.888C404.463 385.875 406.109 387.358 407.01 389.039L407.805 389.064V392.366H407.798C407.733 393.708 407.22 395.058 406.215 396.296C403 400.26 395.972 401.58 390.517 399.243C387.021 397.746 385.029 395.109 384.89 392.366H384.882L384.881 391.93Z" fill="#808083"/>
<path d="M386.46 384.834C383.245 388.798 385.061 393.905 390.516 396.242C395.971 398.578 402.999 397.259 406.214 393.295C409.429 389.331 407.613 384.223 402.158 381.887C396.704 379.55 389.675 380.87 386.46 384.834Z" fill="#A5A7AA"/>
<path d="M390.881 385.726C389.124 387.892 390.117 390.683 393.097 391.959C396.078 393.236 399.918 392.515 401.674 390.349C403.431 388.183 402.438 385.392 399.458 384.116C396.478 382.839 392.637 383.56 390.881 385.726Z" fill="#404041"/>
<path d="M114.372 418.583C114.371 418.52 114.375 418.457 114.372 418.394V415.717L113.195 415.048C113.068 414.86 112.941 414.672 112.792 414.488C109.577 410.524 102.549 409.204 97.094 411.541C94.79 412.528 93.144 414.011 92.243 415.692L91.448 415.717V419.019H91.455C91.52 420.361 92.033 421.711 93.037 422.949C96.252 426.913 103.28 428.233 108.735 425.896C112.231 424.399 114.222 421.762 114.362 419.019H114.37V418.583H114.372Z" fill="#808083"/>
<path d="M112.793 411.487C116.008 415.451 114.192 420.558 108.737 422.895C103.282 425.231 96.2538 423.912 93.0388 419.948C89.8238 415.984 91.6398 410.876 97.0948 408.54C102.55 406.203 109.578 407.523 112.793 411.487Z" fill="#A5A7AA"/>
<path d="M217.319 335.705C217.319 335.705 217.269 335.855 217.159 336.135C217.089 336.305 217.009 336.505 216.919 336.755C216.839 336.955 216.739 337.195 216.629 337.465C216.179 338.525 215.539 340.025 214.649 341.845C213.769 343.685 212.659 345.845 211.309 348.265C210.249 350.185 209.019 352.245 207.649 354.425C207.279 355.005 206.899 355.595 206.519 356.195C204.649 359.015 202.579 362.035 200.209 365.085C199.049 366.615 197.789 368.145 196.519 369.715C195.189 371.235 193.879 372.835 192.439 374.355C189.649 377.485 186.539 380.495 183.339 383.485C180.069 386.415 176.669 389.285 173.099 391.925L170.429 393.905C169.529 394.545 168.599 395.145 167.689 395.775C166.769 396.385 165.869 397.015 164.949 397.605C164.009 398.175 163.079 398.745 162.149 399.315C160.319 400.485 158.419 401.495 156.559 402.525C154.719 403.595 152.809 404.465 150.969 405.395C149.139 406.345 147.259 407.105 145.449 407.905C144.539 408.295 143.659 408.715 142.759 409.065C141.859 409.405 140.969 409.745 140.089 410.075C136.599 411.485 133.189 412.485 130.099 413.495C128.519 413.925 127.019 414.335 125.579 414.735C124.869 414.925 124.169 415.115 123.489 415.295C122.809 415.455 122.139 415.595 121.499 415.745C118.909 416.285 116.689 416.875 114.819 417.145C114.669 417.175 114.519 417.195 114.369 417.215C114.299 417.235 114.239 417.245 114.179 417.245C112.719 417.495 111.539 417.695 110.669 417.845C110.369 417.895 110.119 417.945 109.899 417.975C109.699 418.015 109.539 418.035 109.409 418.055C109.119 418.105 108.969 418.135 108.969 418.135L108.539 415.975L108.409 415.315L107.749 411.975C107.749 411.975 108.169 411.855 108.959 411.635C109.119 411.595 109.289 411.545 109.479 411.495C110.169 411.305 111.049 411.055 112.119 410.765C112.469 410.665 112.839 410.565 113.229 410.455C113.539 410.375 113.859 410.285 114.189 410.185C114.249 410.175 114.309 410.155 114.369 410.135C115.859 409.695 117.539 409.085 119.429 408.485C120.019 408.285 120.629 408.085 121.259 407.875C121.889 407.635 122.519 407.385 123.179 407.135C124.489 406.625 125.859 406.095 127.299 405.545C130.109 404.295 133.179 403.045 136.279 401.405C137.069 401.015 137.859 400.615 138.659 400.215C139.459 399.805 140.239 399.335 141.039 398.895C142.629 397.985 144.289 397.115 145.879 396.065C147.479 395.045 149.139 394.075 150.719 392.925C152.319 391.805 153.959 390.715 155.519 389.475C156.309 388.875 157.099 388.275 157.889 387.675C158.679 387.055 159.429 386.395 160.199 385.765C160.969 385.115 161.749 384.485 162.499 383.825L164.729 381.795C167.689 379.105 170.469 376.215 173.119 373.305C175.699 370.345 178.189 367.395 180.379 364.375C181.519 362.895 182.519 361.355 183.559 359.895C184.539 358.395 185.519 356.945 186.399 355.495C188.199 352.605 189.729 349.785 191.109 347.165C191.719 345.965 192.289 344.805 192.829 343.695C193.459 342.365 194.039 341.105 194.539 339.915C195.479 337.735 196.229 335.815 196.789 334.255C197.359 332.685 197.739 331.465 197.979 330.675C198.039 330.485 198.089 330.305 198.129 330.165C198.159 330.045 198.179 329.955 198.199 329.875C198.259 329.675 198.279 329.575 198.279 329.575L217.319 335.705Z" fill="#056194"/>
<path d="M109.896 414.345L108.237 415.427C108 415.001 107.702 414.546 107.423 414.12L107.114 413.662L106.866 413.367L106.38 412.798L106.259 412.656L106.199 412.585L106.169 412.55L106.01 412.344L105.988 412.322L105.626 411.967L104.9 411.269C102.901 409.459 100.48 408.015 97.9279 407.075L88.5469 401.504H76.0389V408.508L78.2229 411.542C78.2229 411.542 78.5369 411.476 79.1249 411.351C79.2719 411.32 79.4359 411.285 79.6169 411.247C79.7979 411.208 80.0059 411.159 80.1639 411.154C80.4979 411.119 80.8819 411.079 81.3119 411.034C81.7779 411.009 82.2929 410.981 82.8539 410.951C83.4179 410.973 84.0029 410.938 84.6309 411.004C85.8749 411.052 87.2399 411.309 88.5999 411.674C89.9559 412.064 91.3139 412.615 92.5149 413.353C93.6979 414.105 94.7629 414.994 95.5149 416.049L95.7849 416.449L95.9239 416.646L95.9329 416.658C95.6489 416.289 95.8609 416.567 95.8009 416.489L95.8239 416.527L95.8699 416.603L95.9609 416.756L96.3269 417.37C96.3839 417.469 96.4579 417.583 96.5019 417.671L96.5369 417.838C96.5839 418.07 96.6759 418.221 96.7309 418.553C96.7999 418.843 96.8809 419.13 96.8829 419.427C96.9929 420.596 96.8009 421.771 96.3199 422.867C95.8429 423.966 95.0879 424.971 94.1689 425.864C93.9579 426.1 93.6869 426.298 93.4269 426.503C93.1909 426.726 92.8879 426.899 92.6169 427.098C92.3609 427.312 92.0139 427.445 91.7239 427.632L91.6109 427.698L91.5549 427.731L91.5269 427.748C91.6499 427.699 91.2309 427.869 91.7999 427.64L91.7759 427.651L91.3869 427.824L90.6129 428.168C90.4959 428.219 90.3319 428.296 90.2529 428.325L90.0709 428.386C89.9509 428.429 89.8329 428.476 89.7159 428.528C89.6239 428.585 89.4429 428.637 89.2649 428.689L88.7469 428.853C88.0459 429.045 87.3329 429.207 86.6079 429.317C85.6499 429.46 84.6829 429.515 83.7389 429.508L83.8789 429.382L68.6829 421.326V428.33C68.6829 428.33 68.7989 428.588 69.0619 429.071C69.2039 429.307 69.3299 429.627 69.5819 429.958C69.8359 430.295 70.1279 430.682 70.4549 431.116C70.8309 431.528 71.2769 431.979 71.7929 432.46C72.0719 432.689 72.3619 432.927 72.6619 433.173C72.8169 433.296 72.9749 433.421 73.1349 433.549C73.3109 433.664 73.4889 433.781 73.6709 433.9C75.0979 434.89 76.9989 435.804 79.2839 436.532C81.5709 437.25 84.2819 437.744 87.2379 437.787C87.9729 437.775 88.7309 437.799 89.4879 437.738C90.2429 437.674 91.0219 437.63 91.7869 437.507C92.1709 437.445 92.5569 437.382 92.9449 437.32C93.3299 437.257 93.7159 437.196 94.1639 437.077C94.5939 436.965 95.0259 436.852 95.4609 436.738L96.1099 436.557L96.5519 436.418L97.3819 436.152L97.7989 436.018L97.8249 436.01L98.1459 435.88L98.2129 435.851L98.3469 435.793L98.6159 435.676C99.3229 435.352 100.075 435.067 100.742 434.677C102.127 433.953 103.43 433.1 104.556 432.124C106.86 430.198 108.508 427.818 109.34 425.313C109.645 424.325 109.819 423.319 109.874 422.315L109.897 422.289L109.896 414.345Z" fill="#0588B6"/>
<path d="M76.0389 401.507C76.0389 401.507 76.2929 401.358 76.7689 401.077C76.8879 401.007 77.0209 400.929 77.1669 400.843C77.3129 400.757 77.4579 400.663 77.7109 400.562C78.1729 400.36 78.7159 400.128 79.3419 399.873C79.9409 399.667 80.6169 399.443 81.3739 399.224C81.7619 399.131 82.1649 399.035 82.5829 398.935C82.7949 398.887 83.0109 398.838 83.2309 398.788C83.4549 398.754 83.6839 398.719 83.9159 398.683C85.7739 398.366 87.9769 398.234 90.3779 398.422C92.7809 398.594 95.3889 399.11 97.9249 400.074C100.477 401.014 102.898 402.458 104.897 404.268L105.624 404.965L105.986 405.32L106.008 405.342L106.167 405.548L106.197 405.583L106.257 405.654L106.378 405.796L106.864 406.365L107.112 406.66L107.421 407.118C107.818 407.724 108.261 408.394 108.5 408.949C108.787 409.53 109.067 410.119 109.245 410.732C110.075 413.164 110.113 415.796 109.337 418.313C108.505 420.818 106.857 423.197 104.553 425.124C103.427 426.101 102.124 426.953 100.739 427.677C100.073 428.067 99.3199 428.352 98.6129 428.676L98.3439 428.793L98.2099 428.851L98.1429 428.88L97.8219 429.01L97.7959 429.018L97.3789 429.152L96.5489 429.418L96.1069 429.557L95.4579 429.738C95.0239 429.851 94.5919 429.964 94.1619 430.077C93.7139 430.196 93.3279 430.257 92.9429 430.32C92.5549 430.383 92.1689 430.445 91.7849 430.507C91.0199 430.63 90.2409 430.674 89.4859 430.738C88.7289 430.799 87.9719 430.775 87.2359 430.787C84.2809 430.744 81.5699 430.25 79.2819 429.532C76.9969 428.804 75.0959 427.89 73.6689 426.9C73.4869 426.781 73.3089 426.664 73.1329 426.549C72.9729 426.421 72.8149 426.296 72.6599 426.173C72.3589 425.926 72.0689 425.688 71.7909 425.46C71.2749 424.979 70.8289 424.529 70.4529 424.116C70.1259 423.682 69.8339 423.295 69.5799 422.958C69.3279 422.627 69.2019 422.307 69.0599 422.071C68.7969 421.588 68.6799 421.33 68.6799 421.33L73.2569 419.37C73.2569 419.37 73.4939 419.5 73.8919 419.746C74.2739 420.001 74.9009 420.323 75.6499 420.708C76.0719 420.868 76.4789 421.075 76.9519 421.262C77.4589 421.42 77.9439 421.63 78.5269 421.769C79.6339 422.107 80.9379 422.339 82.3129 422.45C83.6879 422.564 85.1589 422.532 86.6059 422.316C87.3309 422.206 88.0439 422.044 88.7449 421.852L89.2629 421.688C89.4409 421.636 89.6209 421.584 89.7139 421.527C89.8309 421.475 89.9489 421.428 90.0689 421.385L90.2509 421.324C90.3289 421.295 90.4929 421.218 90.6109 421.167L91.3849 420.824L91.7739 420.651L91.7979 420.64C91.2279 420.869 91.6479 420.699 91.5249 420.748L91.5529 420.731L91.6089 420.698L91.7219 420.632C92.0119 420.446 92.3589 420.312 92.6149 420.098C92.8859 419.899 93.1889 419.726 93.4249 419.503C93.6849 419.298 93.9559 419.101 94.1669 418.864C95.0859 417.971 95.8409 416.966 96.3179 415.867C96.7989 414.771 96.9909 413.596 96.8799 412.427C96.8779 412.13 96.7969 411.844 96.7279 411.553C96.6729 411.221 96.5809 411.07 96.5339 410.838L96.4989 410.671C96.4549 410.584 96.3809 410.469 96.3239 410.37L95.9579 409.756L95.8669 409.603L95.8209 409.527L95.7979 409.489C95.8579 409.566 95.6469 409.289 95.9299 409.658L95.9209 409.646L95.7819 409.449L95.5119 409.049C94.7589 407.994 93.6949 407.106 92.5119 406.353C91.3119 405.616 89.9529 405.064 88.5969 404.674C87.2369 404.308 85.8719 404.052 84.6279 404.004C83.9999 403.938 83.4159 403.973 82.8509 403.951C82.2899 403.981 81.7739 404.009 81.3089 404.034C80.8789 404.079 80.4949 404.119 80.1609 404.154C80.0029 404.159 79.7949 404.208 79.6139 404.247C79.4329 404.285 79.2689 404.32 79.1219 404.351C78.5339 404.476 78.2199 404.542 78.2199 404.542L76.0389 401.507Z" fill="#00BBE8"/>
<path d="M114.372 411.579C114.371 411.516 114.375 411.453 114.372 411.39V408.713L113.195 408.044C113.068 407.856 112.941 407.668 112.792 407.484C109.577 403.52 102.549 402.2 97.094 404.537C94.79 405.524 93.144 407.008 92.243 408.688L91.448 408.713V412.015H91.455C91.52 413.357 92.033 414.707 93.037 415.945C96.252 419.909 103.28 421.229 108.735 418.892C112.231 417.395 114.222 414.758 114.362 412.015H114.37V411.579H114.372Z" fill="#808083"/>
<path d="M112.793 404.482C116.008 408.446 114.192 413.554 108.737 415.89C103.282 418.226 96.2538 416.907 93.0388 412.943C89.8238 408.979 91.6398 403.871 97.0948 401.535C102.55 399.199 109.578 400.518 112.793 404.482Z" fill="#A5A7AA"/>
<path d="M108.372 405.375C110.129 407.541 109.136 410.332 106.156 411.608C103.175 412.885 99.335 412.164 97.579 409.998C95.822 407.832 96.814 405.041 99.795 403.765C102.775 402.488 106.616 403.209 108.372 405.375Z" fill="#404041"/>
<path d="M217.319 335.705C217.319 335.705 217.269 335.855 217.159 336.135C217.089 336.305 217.009 336.505 216.919 336.755C216.839 336.955 216.739 337.195 216.629 337.465C216.179 338.525 215.539 340.025 214.649 341.845C213.769 343.685 212.659 345.845 211.309 348.265C210.249 350.185 209.019 352.245 207.649 354.425C200.629 351.815 195.929 347.665 192.829 343.695C193.459 342.365 194.039 341.105 194.539 339.915C195.479 337.735 196.229 335.815 196.789 334.255C197.359 332.685 197.739 331.465 197.979 330.675C198.039 330.485 198.089 330.305 198.129 330.165C198.159 330.045 198.179 329.955 198.199 329.875C198.259 329.675 198.279 329.575 198.279 329.575L217.319 335.705Z" fill="#004F72"/>
<path d="M184.871 357.898C184.871 357.898 185.031 358.138 185.324 358.52C185.625 358.9 186.054 359.423 186.6 359.998C186.882 360.278 187.182 360.581 187.511 360.882C187.84 361.185 188.202 361.481 188.58 361.78C188.935 362.104 189.384 362.34 189.779 362.648C190.208 362.912 190.637 363.191 191.083 363.443C191.544 363.671 191.979 363.946 192.447 364.15C192.92 364.338 193.353 364.61 193.817 364.772C194.28 364.935 194.718 365.129 195.14 365.308C195.575 365.441 195.985 365.591 196.366 365.733C196.747 365.876 197.1 366.008 197.42 366.099C197.739 366.194 198.017 366.298 198.248 366.379C198.709 366.548 198.977 366.663 198.977 366.663C198.977 366.663 198.699 366.716 198.207 366.774C197.961 366.8 197.66 366.837 197.315 366.856C196.968 366.892 196.577 366.899 196.154 366.86C195.729 366.838 195.264 366.812 194.776 366.754C194.295 366.663 193.78 366.572 193.257 366.44C192.733 366.315 192.204 366.119 191.668 365.925C191.127 365.739 190.623 365.433 190.098 365.181C189.596 364.884 189.105 364.558 188.644 364.215C188.201 363.842 187.762 363.483 187.394 363.072C186.998 362.691 186.679 362.262 186.389 361.854C186.088 361.455 185.864 361.031 185.662 360.647C185.466 360.258 185.312 359.891 185.205 359.554C185.077 359.229 185.024 358.919 184.964 358.679C184.869 358.185 184.871 357.898 184.871 357.898Z" fill="#004F72"/>
<path d="M174.53 371.671C174.53 371.671 175.234 372.355 176.165 373.378C177.122 374.387 178.298 375.746 179.521 377.028C179.834 377.339 180.131 377.671 180.441 377.973C180.76 378.264 181.041 378.596 181.354 378.863C181.662 379.136 181.937 379.44 182.233 379.675C182.526 379.914 182.779 380.194 183.047 380.395C183.314 380.597 183.553 380.805 183.768 380.992C183.994 381.163 184.191 381.312 184.353 381.435C184.681 381.69 184.871 381.858 184.871 381.858C184.871 381.858 184.631 381.852 184.205 381.805C183.772 381.774 183.176 381.644 182.481 381.395C182.124 381.287 181.775 381.104 181.391 380.925C181.002 380.75 180.639 380.5 180.25 380.253C179.855 380.012 179.5 379.703 179.126 379.401C178.75 379.1 178.422 378.743 178.071 378.407C177.414 377.696 176.813 376.936 176.335 376.172C175.844 375.416 175.472 374.659 175.2 373.992C174.638 372.66 174.53 371.671 174.53 371.671Z" fill="#004F72"/>
<path d="M162.499 383.825C162.499 383.825 163.115 384.449 163.874 385.406C164.661 386.351 165.59 387.635 166.513 388.894C166.977 389.518 167.441 390.143 167.876 390.728C168.326 391.31 168.746 391.853 169.106 392.319C169.494 392.763 169.805 393.182 170.055 393.444C170.294 393.724 170.429 393.905 170.429 393.905C170.429 393.905 170.217 393.874 169.847 393.783C169.667 393.73 169.426 393.69 169.19 393.58C168.948 393.479 168.672 393.361 168.382 393.21C167.808 392.905 167.178 392.474 166.578 391.936C165.978 391.398 165.408 390.757 164.901 390.075C164.409 389.384 163.967 388.661 163.629 387.946C163.28 387.237 163.03 386.54 162.858 385.929C162.499 384.711 162.499 383.825 162.499 383.825Z" fill="#004F72"/>
<path d="M150.719 392.925C150.719 392.925 151.242 393.515 151.832 394.423C152.139 394.873 152.465 395.403 152.791 395.974C153.123 396.54 153.447 397.153 153.775 397.753C154.093 398.354 154.41 398.955 154.708 399.518C154.848 399.808 155.008 400.059 155.143 400.321C155.273 400.59 155.426 400.804 155.547 401.039C155.672 401.272 155.813 401.447 155.924 401.637C156.039 401.823 156.145 401.982 156.247 402.1C156.441 402.354 156.559 402.526 156.559 402.526C156.559 402.526 156.372 402.51 156.032 402.435C155.859 402.401 155.651 402.345 155.443 402.233C155.232 402.13 154.958 402.028 154.733 401.849C154.5 401.681 154.209 401.509 153.978 401.276C153.74 401.049 153.47 400.809 153.251 400.53C152.783 399.985 152.357 399.354 152.01 398.692C151.307 397.368 150.888 395.936 150.76 394.82C150.602 393.711 150.719 392.925 150.719 392.925Z" fill="#004F72"/>
<path d="M138.659 400.215C138.659 400.215 139.094 400.771 139.539 401.609C140.011 402.442 140.483 403.566 140.913 404.669C141.117 405.218 141.321 405.768 141.513 406.283C141.695 406.8 141.877 407.269 142.04 407.678C142.211 408.08 142.37 408.434 142.519 408.665C142.665 408.9 142.76 409.065 142.76 409.065C142.76 409.065 142.595 409.056 142.287 408.988C142.127 408.959 141.95 408.894 141.765 408.789C141.57 408.693 141.342 408.577 141.151 408.404C140.719 408.091 140.299 407.639 139.947 407.115C139.578 406.593 139.288 405.995 139.047 405.384C138.577 404.156 138.392 402.863 138.428 401.875C138.436 400.891 138.659 400.215 138.659 400.215Z" fill="#004F72"/>
<path d="M125.053 406.408C125.053 406.408 125.46 406.865 125.853 407.552C126.275 408.236 126.674 409.157 126.99 410.09C127.302 411.025 127.537 411.97 127.649 412.748C127.723 413.126 127.751 413.472 127.784 413.714C127.808 413.962 127.809 414.12 127.809 414.12C127.809 414.12 127.671 414.061 127.449 413.93C127.223 413.801 126.934 413.587 126.635 413.287C126.018 412.7 125.435 411.746 125.094 410.725C124.755 409.702 124.645 408.622 124.736 407.795C124.798 406.972 125.053 406.408 125.053 406.408Z" fill="#004F72"/>
<path d="M301.338 301.939C308.572 322.621 291.447 347.414 263.092 357.332C234.736 367.25 205.892 358.534 198.658 337.853C194.373 325.601 198.646 311.891 208.747 300.699C215.677 293.01 225.363 286.507 236.908 282.47C248.452 278.432 260.08 277.48 270.292 279.173C285.166 281.629 297.053 289.687 301.338 301.939Z" fill="#0588B6"/>
<path d="M288.424 295.883C294.301 312.685 280.384 332.839 257.343 340.898C234.302 348.957 210.857 341.87 204.981 325.068C202.211 317.148 203.842 308.484 208.746 300.698C215.676 293.009 225.362 286.506 236.907 282.469C248.451 278.431 260.079 277.479 270.291 279.172C278.979 282.204 285.654 287.963 288.424 295.883Z" fill="#00BBE8"/>
<path d="M272.308 244.451L261.052 257.572L265.938 258.635L259.16 271.951L272.158 256.699L266.947 255.565L272.308 244.451Z" fill="#FFDC15"/>
<path d="M246.871 376.428L230.68 370.369L231.361 375.323L216.527 373.536L235.318 380.499L234.591 375.215L246.871 376.428Z" fill="#FFDC15"/>
<path d="M464.359 406.646L447.122 407.959L449.824 412.167L435.614 416.785L455.59 415.198L452.708 410.711L464.359 406.646Z" fill="#FFDC15"/>
<path d="M403.969 423.203L387.351 418.439L388.421 423.323L373.491 422.71L392.772 428.171L391.632 422.961L403.969 423.203Z" fill="#FFDC15"/>
<path d="M242.371 384.028L231.314 384.036L233.867 387.301L225.409 389.925L238.212 389.868L235.488 386.385L242.371 384.028Z" fill="#FFDC15"/>
<path d="M251.877 234.872L249.437 251.986L254.129 250.256L255.569 265.128L258.334 245.281L253.33 247.125L251.877 234.872Z" fill="#FFDC15"/>
<path d="M157.837 353.117L174.161 347.428L170.471 344.054L183.022 335.946L164.12 342.602L168.056 346.201L157.837 353.117Z" fill="#FFDC15"/>
<path d="M141.36 332.295L158.336 335.556L156.835 330.787L171.759 330.063L152.068 326.346L153.669 331.434L141.36 332.295Z" fill="#FFDC15"/>
<path d="M247.307 313.468C248.562 305.701 243.283 298.387 235.516 297.132C227.749 295.877 220.435 301.157 219.18 308.924C217.925 316.691 223.204 324.005 230.971 325.26C238.739 326.514 246.052 321.235 247.307 313.468Z" fill="#056194"/>
<path d="M233.641 271.361L184.962 313.164C179.122 318.179 181.029 330.496 176.014 324.656L149.928 294.006C144.913 288.166 145.588 279.285 151.428 274.27L200.107 232.467C205.947 227.452 214.828 228.127 219.843 233.967L243.74 262.09C248.754 267.93 239.481 266.346 233.641 271.361Z" fill="#05B8EB"/>
<path d="M168.809 247.141L187.051 270.899L191.111 267.411L170.383 245.789L168.809 247.141Z" fill="#055F97"/>
<path d="M255.844 297.53L207.165 339.333C201.325 344.348 192.444 343.673 187.429 337.833L172.131 320.175C167.116 314.335 167.791 305.454 173.631 300.439L222.31 258.636C228.15 253.621 237.031 254.296 242.046 260.136L257.344 277.794C262.359 283.634 261.684 292.515 255.844 297.53Z" fill="#0286B8"/>
<path d="M251.163 293.124L203.518 334.04C200.248 336.848 195.275 336.47 192.467 333.2L177.473 315.896C174.665 312.626 175.043 307.653 178.313 304.845L225.958 263.93C229.228 261.122 234.201 261.5 237.009 264.77L252.003 282.074C254.811 285.343 254.433 290.316 251.163 293.124Z" fill="#231F20"/>
<path d="M172.36 244.092C173.671 245.618 173.496 247.918 171.97 249.229C170.444 250.54 168.144 250.365 166.833 248.839C165.522 247.313 165.697 245.013 167.223 243.702C168.749 242.391 171.049 242.566 172.36 244.092Z" fill="#EB1C24"/>
<path d="M200.591 302.655L200.333 302.355L202.1 300.836L201.222 299.815L202.989 298.296L202.111 297.275L203.878 295.755L202.123 293.714L198.589 296.753L199.467 297.773L197.7 299.293L198.577 300.314L196.81 301.833L197.688 302.854L197.169 303.3L195.921 304.373L195.402 304.82L194.524 303.799L192.757 305.318L191.88 304.297L190.112 305.817L189.235 304.796L185.701 307.835L187.456 309.876L189.223 308.357L190.101 309.378L191.868 307.858L192.746 308.879L194.513 307.36L194.771 307.66L195.391 308.381L195.648 308.681L193.882 310.2L194.759 311.221L192.992 312.74L193.87 313.761L192.103 315.28L193.859 317.322L197.393 314.283L196.515 313.263L198.282 311.743L197.404 310.722L199.171 309.203L198.293 308.182L198.812 307.736L200.06 306.663L200.579 306.216L201.457 307.237L203.224 305.718L204.102 306.739L205.869 305.219L206.747 306.24L210.281 303.201L208.525 301.159L206.758 302.679L205.88 301.658L204.113 303.177L203.236 302.157L201.469 303.676L201.211 303.376L200.591 302.655Z" fill="#A5A7AA"/>
<path d="M225.739 281.031L225.481 280.731L227.248 279.212L226.37 278.191L228.137 276.672L227.259 275.651L229.027 274.131L227.271 272.09L223.737 275.129L224.615 276.149L222.848 277.669L223.725 278.69L221.958 280.209L222.836 281.23L222.317 281.676L221.069 282.749L220.55 283.196L219.672 282.175L217.905 283.694L217.028 282.673L215.261 284.193L214.383 283.172L210.849 286.211L212.604 288.252L214.371 286.733L215.249 287.754L217.016 286.234L217.894 287.255L219.661 285.736L219.919 286.036L220.539 286.757L220.797 287.056L219.03 288.576L219.907 289.597L218.14 291.116L219.018 292.137L217.251 293.656L219.007 295.698L222.541 292.659L221.663 291.638L223.43 290.119L222.552 289.098L224.319 287.579L223.441 286.558L223.96 286.112L225.208 285.039L225.727 284.592L226.605 285.613L228.372 284.094L229.25 285.115L231.017 283.595L231.895 284.616L235.429 281.577L233.673 279.535L231.906 281.055L231.028 280.034L229.261 281.553L228.384 280.533L226.617 282.052L226.359 281.752L225.739 281.031Z" fill="#A5A7AA"/>
<path d="M201.134 316.65L202.89 318.692L221.594 302.609L226.365 308.157L228.132 306.638L229.01 307.659L230.777 306.14L231.655 307.161L235.189 304.122L238.723 301.083L237.845 300.062L239.612 298.543L238.734 297.522L240.201 296.261L235.43 290.713L233.674 288.671L201.134 316.65ZM235.788 298.278L234.322 299.539L235.2 300.56L233.433 302.079L231.666 303.598L230.788 302.577L229.021 304.096L225.128 299.569L227.628 297.419L229.132 299.169L230.899 297.65L229.395 295.9L231.895 293.75L235.788 298.278Z" fill="#A5A7AA"/>
<path d="M287.252 319.81C290.101 323.138 288.846 328.886 284.45 332.649C280.054 336.412 274.181 336.764 271.332 333.436C268.483 330.108 269.737 324.36 274.134 320.597C278.531 316.835 284.404 316.482 287.252 319.81Z" fill="#004F72"/>
<path d="M283.453 320.596C285.552 323.049 284.628 327.285 281.388 330.058C278.148 332.831 273.82 333.091 271.72 330.638C269.62 328.185 270.545 323.949 273.785 321.175C277.025 318.404 281.354 318.144 283.453 320.596Z" fill="#A5A7AA"/>
<path d="M412.166 427.904C412.108 427.674 406.184 404.377 395.982 381.126C384.007 353.831 370.868 337.594 359.935 336.58C336.092 334.361 316.991 373.902 311.643 389.322L292.738 382.796C293.727 379.926 317.479 312.539 361.783 316.666C381.024 318.45 398.726 337.512 414.397 373.321C425.233 398.08 431.308 422.016 431.562 423.023L412.166 427.904Z" fill="#056194"/>
<path d="M410.859 420.668C410.859 420.668 425.859 423.598 430.359 419.076C430.359 419.076 458.359 423.054 464.359 449.554C464.359 449.554 452.859 462.554 427.859 456.554C402.859 450.554 396.859 443.554 396.859 443.554C396.859 443.554 394.859 432.782 410.859 420.668Z" fill="#0588B6"/>
<path d="M411.359 423.306C411.359 423.306 400.859 429.056 399.609 443.056C399.609 443.056 432.504 463.19 453.254 452.69C453.254 452.69 449.359 433.743 425.859 425.556C425.859 425.556 416.359 425.806 411.359 423.306Z" fill="#00BBE8"/>
<path d="M302.085 381.246C295.454 377.605 287.207 375.446 278.269 375.434C269.331 375.422 261.078 377.559 254.438 381.183C247.933 384.726 242.98 389.696 240.422 395.453C244.962 400.311 245.029 408.803 240.625 413.771C245.969 425.165 260.758 433.369 278.192 433.392C300.145 433.421 317.957 420.474 317.978 404.462C317.99 394.977 311.746 386.543 302.085 381.246Z" fill="#006699"/>
<path d="M310.541 397.16C310.524 410.168 296.047 420.694 278.209 420.67C260.371 420.646 245.923 410.082 245.94 397.074C245.948 390.943 249.171 385.364 254.438 381.183C261.078 377.56 269.332 375.423 278.269 375.434C287.206 375.446 295.454 377.605 302.085 381.246C307.341 385.441 310.549 391.028 310.541 397.16Z" fill="#0099CC"/>
<path d="M239.609 424.055C239.609 424.055 246.365 412.055 268.362 413.055C268.362 413.055 291.264 426.555 294.812 436.555C298.359 446.555 299.765 458.555 294.812 461.055C289.859 463.555 252.908 461.555 240.884 443.555C240.884 443.555 245.356 437.555 239.609 424.055Z" fill="#0588B6"/>
<path d="M268.362 413.056C268.362 413.056 249.191 415.056 243.025 423.806C243.025 423.806 256.672 454.762 294.812 446.512C294.812 446.512 300.115 433.056 268.362 413.056Z" fill="#00BBE8"/>
<path d="M173.359 417.046C173.359 417.046 171.854 416.319 169.601 415.453C168.472 415.025 167.147 414.584 165.721 414.224C165.009 414.043 164.265 413.911 163.515 413.798C162.765 413.67 162 413.635 161.241 413.625C160.486 413.633 159.726 413.651 159.001 413.799C158.272 413.923 157.569 414.105 156.899 414.337C156.572 414.475 156.251 414.611 155.937 414.745C155.634 414.904 155.325 415.046 155.039 415.21C154.757 415.387 154.483 415.56 154.218 415.727C153.962 415.914 153.714 416.095 153.476 416.269C153.022 416.646 152.59 416.994 152.236 417.336C151.898 417.692 151.553 417.97 151.323 418.246C150.838 418.778 150.539 419.081 150.539 419.081C150.539 419.081 150.695 418.693 151.006 418.015C151.153 417.67 151.397 417.293 151.663 416.843C151.935 416.399 152.29 415.924 152.708 415.43C152.929 415.191 153.159 414.941 153.397 414.683C153.657 414.446 153.939 414.215 154.225 413.969C154.521 413.738 154.846 413.526 155.171 413.294C155.506 413.081 155.873 412.905 156.239 412.71C156.996 412.384 157.797 412.05 158.652 411.9C159.5 411.706 160.378 411.651 161.25 411.625C162.12 411.659 162.987 411.728 163.818 411.893C164.655 412.03 165.447 412.289 166.203 412.538C166.959 412.793 167.662 413.108 168.312 413.429C168.967 413.741 169.558 414.089 170.091 414.426C172.236 415.768 173.359 417.046 173.359 417.046Z" fill="#004F72"/>
<path d="M176.978 420.048C176.978 420.048 175.173 420.329 172.578 420.899C171.93 421.048 171.233 421.218 170.505 421.41C169.775 421.6 169.023 421.847 168.251 422.093C167.483 422.352 166.711 422.669 165.95 423.011C165.189 423.355 164.444 423.751 163.769 424.227C163.063 424.664 162.451 425.204 161.9 425.773C161.379 426.365 160.895 426.975 160.562 427.652C160.37 427.978 160.28 428.342 160.115 428.671C160.012 429.022 159.899 429.367 159.814 429.712C159.755 430.066 159.698 430.41 159.643 430.743C159.616 431.086 159.59 431.417 159.566 431.736C159.548 432.057 159.581 432.367 159.576 432.665C159.571 432.964 159.578 433.248 159.615 433.514C159.682 434.044 159.683 434.526 159.765 434.908C159.886 435.682 159.941 436.14 159.941 436.14C159.941 436.14 159.728 435.742 159.382 435.017C159.194 434.659 159.05 434.194 158.864 433.661C158.665 433.131 158.548 432.498 158.419 431.804C158.383 431.449 158.344 431.08 158.305 430.698C158.296 430.311 158.325 429.909 158.337 429.492C158.382 429.078 158.458 428.652 158.532 428.214C158.659 427.79 158.769 427.342 158.961 426.918C159.32 426.06 159.817 425.215 160.464 424.482C161.118 423.765 161.849 423.093 162.659 422.565C163.467 422.029 164.325 421.602 165.182 421.241C166.037 420.867 166.917 420.633 167.759 420.407C169.453 419.985 171.062 419.816 172.433 419.764C175.181 419.656 176.978 420.048 176.978 420.048Z" fill="#004F72"/>
<path d="M187.235 422.028C187.235 422.028 186.249 423.228 184.895 425.018C184.568 425.471 184.215 425.961 183.84 426.48C183.471 426.998 183.123 427.567 182.751 428.139C182.052 429.308 181.37 430.583 180.947 431.901C180.71 432.556 180.594 433.224 180.492 433.879C180.457 434.531 180.395 435.183 180.523 435.795C180.613 436.412 180.799 436.994 181.014 437.544C181.147 437.811 181.277 438.07 181.403 438.321C181.542 438.568 181.699 438.798 181.839 439.028C182.153 439.461 182.451 439.872 182.751 440.209C183.065 440.529 183.305 440.863 183.554 441.079C184.027 441.542 184.297 441.83 184.297 441.83C184.297 441.83 183.941 441.689 183.32 441.402C183.002 441.27 182.659 441.038 182.248 440.787C181.842 440.53 181.408 440.19 180.967 439.777C180.757 439.559 180.526 439.339 180.306 439.09C180.105 438.826 179.897 438.549 179.698 438.251C179.334 437.636 178.974 436.943 178.799 436.159C178.58 435.386 178.526 434.55 178.558 433.716C178.629 432.889 178.779 432.056 179.047 431.277C179.309 430.496 179.641 429.749 180.033 429.062C180.404 428.36 180.87 427.743 181.304 427.143C182.204 425.966 183.176 424.997 184.06 424.238C185.824 422.706 187.235 422.028 187.235 422.028Z" fill="#004F72"/>
<path d="M204.403 423.306C204.403 423.306 205.147 424.424 205.846 426.272C206.018 426.734 206.205 427.237 206.362 427.779C206.512 428.323 206.705 428.892 206.815 429.499C207.095 430.702 207.294 432.013 207.366 433.34C207.421 434 207.388 434.672 207.384 435.326C207.367 435.983 207.256 436.63 207.198 437.251C207.089 437.874 206.951 438.47 206.811 439.028C206.634 439.584 206.442 440.1 206.264 440.569C206.044 441.03 205.813 441.437 205.615 441.793C205.443 442.16 205.168 442.424 204.998 442.658C204.626 443.115 204.403 443.353 204.403 443.353C204.403 443.353 204.485 443.021 204.644 442.479C204.714 442.203 204.85 441.899 204.906 441.509C204.976 441.126 205.059 440.703 205.162 440.252C205.209 439.781 205.262 439.279 205.344 438.758C205.377 438.224 205.39 437.662 205.445 437.089C205.445 436.508 205.445 435.908 205.445 435.298C205.404 434.686 205.435 434.067 205.371 433.444C205.336 432.821 205.304 432.198 205.242 431.583C205.193 430.968 205.151 430.359 205.082 429.771C204.955 428.586 204.837 427.479 204.735 426.531C204.51 424.627 204.403 423.306 204.403 423.306Z" fill="#004F72"/>
<path d="M221.803 424.051C221.803 424.051 222.753 425.002 223.8 426.689C224.067 427.108 224.335 427.573 224.604 428.074C224.855 428.583 225.151 429.109 225.382 429.687C225.614 430.264 225.892 430.847 226.084 431.476C226.308 432.093 226.491 432.736 226.647 433.39C226.82 434.036 226.923 434.707 227.02 435.363C227.144 436.014 227.112 436.687 227.162 437.316C227.182 437.953 227.099 438.577 227.059 439.156C226.973 439.74 226.833 440.285 226.718 440.778C226.571 441.27 226.364 441.702 226.207 442.081C226.075 442.469 225.824 442.756 225.669 443.003C225.331 443.488 225.129 443.741 225.129 443.741C225.129 443.741 225.186 443.4 225.303 442.848C225.354 442.569 225.462 442.255 225.475 441.861C225.508 441.482 225.545 441.055 225.586 440.589C225.569 440.117 225.571 439.617 225.568 439.093C225.516 438.566 225.462 438.01 225.405 437.435C225.303 436.86 225.24 436.272 225.105 435.673C224.972 435.076 224.878 434.464 224.704 433.861C224.571 433.252 224.405 432.648 224.235 432.052C224.078 431.454 223.905 430.866 223.735 430.297C223.561 429.726 223.393 429.175 223.234 428.652C223.051 428.136 222.913 427.631 222.764 427.171C222.17 425.334 221.803 424.051 221.803 424.051Z" fill="#004F72"/>
<path d="M406.636 407.452C406.636 407.452 407.927 407.396 409.795 407.395C410.722 407.39 411.803 407.383 412.962 407.377C413.534 407.364 414.125 407.35 414.726 407.336C415.323 407.312 415.929 407.3 416.529 407.253C418.936 407.121 421.277 406.751 422.896 406.046C423.103 405.966 423.292 405.872 423.47 405.777C423.652 405.688 423.831 405.605 423.979 405.503C424.294 405.317 424.557 405.13 424.772 404.964C425.194 404.628 425.435 404.401 425.435 404.401C425.435 404.401 425.406 404.475 425.351 404.615C425.286 404.749 425.232 404.981 425.077 405.221C424.934 405.47 424.754 405.779 424.481 406.082C424.221 406.394 423.894 406.735 423.488 407.031C423.094 407.351 422.628 407.648 422.11 407.898C421.597 408.163 421.035 408.395 420.439 408.575C419.844 408.753 419.225 408.924 418.587 409.026C417.951 409.135 417.301 409.207 416.653 409.248C415.356 409.327 414.064 409.272 412.87 409.131C411.676 408.995 410.576 408.777 409.65 408.529C407.791 408.052 406.636 407.452 406.636 407.452Z" fill="#004F72"/>
<path d="M398.769 387.736C398.769 387.736 399.981 387.227 401.811 386.668C402.725 386.378 403.794 386.073 404.94 385.769C406.085 385.46 407.306 385.147 408.526 384.851C409.743 384.559 410.961 384.266 412.102 383.992C413.237 383.709 414.289 383.438 415.18 383.172C415.619 383.028 416.023 382.898 416.376 382.765C416.721 382.622 417.021 382.491 417.262 382.362C417.483 382.218 417.687 382.116 417.789 382.01C417.905 381.911 417.968 381.858 417.968 381.858C417.955 381.846 417.889 382.184 417.522 382.663C417.334 382.89 417.089 383.159 416.771 383.42C416.456 383.681 416.085 383.957 415.658 384.216C414.813 384.745 413.77 385.241 412.63 385.672C412.057 385.88 411.469 386.108 410.857 386.284C410.249 386.476 409.624 386.636 408.999 386.794C407.747 387.1 406.481 387.328 405.287 387.492C404.094 387.66 402.973 387.757 402.007 387.795C400.078 387.889 398.769 387.736 398.769 387.736Z" fill="#004F72"/>
<path d="M391.503 371.536C391.503 371.536 392.259 370.437 393.768 369.178C394.508 368.531 395.443 367.867 396.489 367.221C397.027 366.928 397.559 366.572 398.149 366.306C398.728 366.018 399.325 365.743 399.939 365.508C400.548 365.261 401.17 365.046 401.794 364.869C402.407 364.658 403.04 364.55 403.641 364.416C404.238 364.263 404.837 364.211 405.398 364.146C405.678 364.115 405.951 364.086 406.214 364.057C406.481 364.053 406.738 364.049 406.985 364.046C407.968 364.008 408.788 364.095 409.356 364.183C409.924 364.262 410.244 364.326 410.244 364.326C410.244 364.326 409.926 364.43 409.38 364.58C409.107 364.652 408.777 364.744 408.4 364.826C408.028 364.932 407.608 365.052 407.15 365.183C406.238 365.423 405.194 365.76 404.09 366.12C403.536 366.299 402.97 366.497 402.4 366.714C401.827 366.922 401.244 367.126 400.674 367.37C399.517 367.81 398.383 368.314 397.308 368.777C396.775 369.022 396.26 369.259 395.772 369.484C395.283 369.716 394.82 369.935 394.393 370.138C392.658 370.976 391.503 371.536 391.503 371.536Z" fill="#004F72"/>
<path d="M383.026 354.426C383.026 354.426 383.301 353.096 384.268 351.325C384.524 350.895 384.772 350.401 385.119 349.938C385.445 349.46 385.796 348.955 386.224 348.485C386.625 347.992 387.092 347.523 387.576 347.056C388.067 346.596 388.618 346.179 389.166 345.764C389.763 345.413 390.31 344.984 390.949 344.723C391.568 344.428 392.182 344.156 392.82 343.996C393.134 343.907 393.438 343.807 393.742 343.735C394.046 343.664 394.359 343.652 394.652 343.61C395.243 343.535 395.796 343.469 396.316 343.535C396.831 343.564 397.297 343.602 397.704 343.659C398.109 343.755 398.456 343.86 398.738 343.941C399.302 344.11 399.609 344.224 399.609 344.224C399.609 344.224 399.268 344.276 398.698 344.337C398.413 344.364 398.071 344.403 397.686 344.424C397.301 344.497 396.873 344.603 396.412 344.679C395.948 344.735 395.471 344.924 394.964 345.07C394.713 345.154 394.45 345.208 394.196 345.319C393.945 345.441 393.683 345.539 393.421 345.651C392.881 345.834 392.385 346.169 391.853 346.439C391.316 346.697 390.833 347.091 390.312 347.403C389.819 347.766 389.323 348.131 388.851 348.514C388.398 348.922 387.905 349.274 387.496 349.696C387.067 350.096 386.651 350.488 386.271 350.878C385.881 351.259 385.542 351.649 385.198 351.989C384.556 352.703 384 353.302 383.627 353.738C383.244 354.176 383.026 354.426 383.026 354.426Z" fill="#004F72"/>
<path d="M369.391 340.795C369.391 340.795 369.127 339.448 369.21 337.421C369.242 336.408 369.355 335.227 369.595 333.978C369.722 333.355 369.845 332.706 370.035 332.061C370.209 331.412 370.436 330.765 370.673 330.121C370.934 329.484 371.203 328.849 371.529 328.248C371.837 327.639 372.211 327.073 372.587 326.537C373.343 325.467 374.229 324.578 375.098 323.976C375.53 323.672 375.946 323.427 376.339 323.256C376.712 323.056 377.08 322.966 377.361 322.868C377.647 322.777 377.89 322.758 378.044 322.723C378.2 322.695 378.283 322.681 378.283 322.681C378.283 322.681 378.013 322.878 377.54 323.224C377.319 323.414 377.044 323.616 376.764 323.893C376.474 324.152 376.183 324.483 375.867 324.83C375.255 325.55 374.641 326.452 374.075 327.48C373.783 327.988 373.533 328.545 373.27 329.106C373.012 329.67 372.769 330.255 372.538 330.846C372.081 332.032 371.667 333.247 371.301 334.403C370.937 335.56 370.623 336.657 370.34 337.603C369.796 339.495 369.391 340.795 369.391 340.795Z" fill="#004F72"/>
<path d="M354.026 335.921C354.026 335.921 353.041 335.094 351.993 333.508C351.742 333.107 351.444 332.682 351.206 332.193C350.944 331.715 350.677 331.202 350.463 330.645C349.984 329.55 349.62 328.312 349.38 327.044C349.311 326.4 349.173 325.766 349.18 325.123C349.164 324.482 349.154 323.855 349.24 323.246C349.295 322.638 349.372 322.055 349.54 321.516C349.686 320.976 349.797 320.464 350.025 320.027C350.217 319.581 350.412 319.184 350.585 318.838C350.792 318.505 351.001 318.232 351.162 318.006C351.493 317.558 351.693 317.321 351.693 317.321C351.693 317.321 351.639 317.643 351.523 318.172C351.462 318.431 351.387 318.745 351.301 319.105C351.257 319.476 351.208 319.888 351.133 320.323C351.038 320.754 351.066 321.246 351.015 321.742C350.955 322.238 351.003 322.771 350.999 323.313C350.97 323.854 351.085 324.415 351.114 324.982C351.147 325.549 351.28 326.123 351.349 326.698C351.459 327.27 351.573 327.844 351.698 328.408C351.855 328.965 351.943 329.533 352.119 330.062C352.274 330.596 352.413 331.119 352.573 331.609C352.731 332.103 352.88 332.57 353.017 333.001C353.623 334.754 354.026 335.921 354.026 335.921Z" fill="#004F72"/>
<path d="M339.835 344.224C339.835 344.224 338.63 343.66 337.065 342.483C336.274 341.904 335.401 341.167 334.516 340.319C334.092 339.878 333.618 339.453 333.199 338.961C332.771 338.477 332.338 337.984 331.943 337.455C331.133 336.417 330.419 335.291 329.866 334.166C329.552 333.629 329.364 333.034 329.152 332.502C328.917 331.981 328.84 331.412 328.713 330.93C328.567 330.452 328.588 329.96 328.548 329.558C328.539 329.353 328.514 329.166 328.522 328.989C328.545 328.811 328.566 328.648 328.585 328.5C328.667 327.917 328.734 327.604 328.734 327.604C328.734 327.604 328.837 327.932 328.981 328.469C329.015 328.602 329.054 328.748 329.095 328.908C329.158 329.063 329.226 329.23 329.298 329.408C329.461 329.759 329.564 330.16 329.803 330.568C330.04 330.975 330.213 331.431 330.51 331.879C330.795 332.33 331.058 332.811 331.394 333.288C331.709 333.774 332.053 334.259 332.419 334.751C332.771 335.248 333.14 335.747 333.529 336.236C333.891 336.742 334.302 337.217 334.676 337.707C335.062 338.191 335.442 338.668 335.809 339.129C336.561 340.042 337.26 340.907 337.858 341.659C339.064 343.149 339.835 344.224 339.835 344.224Z" fill="#004F72"/>
<path d="M326.101 360.305C326.101 360.305 324.738 360.065 322.932 359.101C322.473 358.874 322 358.588 321.506 358.272C321.022 357.944 320.5 357.605 320.009 357.195C319.521 356.781 318.989 356.379 318.522 355.892C318.026 355.433 317.57 354.922 317.126 354.399C316.669 353.887 316.28 353.319 315.889 352.77C315.478 352.234 315.199 351.62 314.864 351.076C314.522 350.533 314.318 349.937 314.072 349.407C313.815 348.881 313.662 348.343 313.513 347.854C313.365 347.365 313.217 346.925 313.148 346.514C313.067 346.107 313.016 345.748 312.971 345.456C312.887 344.869 312.858 344.533 312.858 344.533C312.858 344.533 313.048 344.822 313.347 345.326C313.494 345.579 313.676 345.883 313.861 346.237C314.047 346.591 314.321 346.96 314.561 347.384C314.816 347.801 315.076 348.256 315.394 348.713C315.714 349.167 316.002 349.671 316.363 350.152C316.723 350.633 317.063 351.149 317.461 351.634C317.861 352.118 318.22 352.644 318.654 353.111C319.057 353.604 319.476 354.083 319.907 354.54C320.324 355.01 320.755 355.455 321.176 355.884C322.028 356.732 322.848 357.51 323.578 358.16C325.036 359.46 326.101 360.305 326.101 360.305Z" fill="#004F72"/>
<path d="M315.976 378.684C315.976 378.684 314.617 378.498 312.744 377.72C312.281 377.519 311.766 377.318 311.258 377.038C310.738 376.779 310.193 376.494 309.661 376.146C308.57 375.492 307.478 374.67 306.456 373.762C305.974 373.274 305.456 372.825 305.024 372.302C304.586 371.785 304.15 371.284 303.799 370.738C303.433 370.205 303.078 369.695 302.827 369.152C302.565 368.619 302.281 368.142 302.133 367.64C301.957 367.154 301.818 366.704 301.698 366.309C301.594 365.907 301.558 365.538 301.508 365.247C301.424 364.658 301.397 364.326 301.397 364.326C301.397 364.326 301.588 364.616 301.884 365.116C302.028 365.364 302.202 365.664 302.402 366.009C302.634 366.336 302.892 366.701 303.148 367.105C303.391 367.516 303.77 367.894 304.078 368.339C304.386 368.786 304.811 369.189 305.181 369.648C305.541 370.117 306.025 370.511 306.437 370.974C306.864 371.425 307.35 371.838 307.8 372.282C308.279 372.701 308.759 373.119 309.23 373.532C309.727 373.917 310.175 374.351 310.664 374.704C311.141 375.071 311.593 375.444 312.042 375.774C312.489 376.111 312.911 376.429 313.301 376.722C314.907 377.9 315.976 378.684 315.976 378.684Z" fill="#004F72"/>
<path d="M283.705 265.603L285.097 268.424L288.21 268.876L285.957 271.072L286.489 274.172L283.705 272.708L280.92 274.172L281.452 271.072L279.2 268.876L282.313 268.424L283.705 265.603Z" fill="#FFDC15"/>
<path d="M210.281 378.732L212.001 382.218L215.849 382.777L213.065 385.491L213.722 389.323L210.281 387.514L206.839 389.323L207.497 385.491L204.712 382.777L208.56 382.218L210.281 378.732Z" fill="#FFDC15"/>
<path d="M214.439 364.53L215.27 366.213L217.128 366.483L215.784 367.793L216.101 369.644L214.439 368.77L212.778 369.644L213.095 367.793L211.751 366.483L213.609 366.213L214.439 364.53Z" fill="#FFDC15"/>
<path d="M449.612 387.624L450.706 389.841L453.153 390.197L451.382 391.922L451.8 394.36L449.612 393.209L447.423 394.36L447.841 391.922L446.07 390.197L448.517 389.841L449.612 387.624Z" fill="#FFDC15"/>
<path d="M473.848 416.732L474.708 418.475L476.632 418.755L475.24 420.112L475.569 422.028L473.848 421.123L472.127 422.028L472.456 420.112L471.064 418.755L472.987 418.475L473.848 416.732Z" fill="#FFDC15"/>
<path d="M370.707 433.491L371.567 435.235L373.491 435.514L372.099 436.871L372.428 438.787L370.707 437.883L368.986 438.787L369.315 436.871L367.923 435.514L369.847 435.235L370.707 433.491Z" fill="#FFDC15"/>
<path d="M473.848 390.771L475.569 394.258L479.416 394.817L476.632 397.531L477.289 401.363L473.848 399.554L470.406 401.363L471.064 397.531L468.279 394.817L472.127 394.258L473.848 390.771Z" fill="#FFDC15"/>
<path d="M239.657 225.264L241.142 228.272L244.462 228.754L242.06 231.096L242.627 234.402L239.657 232.841L236.688 234.402L237.255 231.096L234.853 228.754L238.173 228.272L239.657 225.264Z" fill="#FFDC15"/>
<path d="M276.508 229.105L277.369 230.849L279.293 231.128L277.901 232.485L278.229 234.401L276.508 233.496L274.788 234.401L275.116 232.485L273.724 231.128L275.648 230.849L276.508 229.105Z" fill="#FFDC15"/>
<path d="M138.756 309.583L139.672 311.44L141.721 311.737L140.238 313.182L140.588 315.223L138.756 314.259L136.924 315.223L137.274 313.182L135.791 311.737L137.84 311.44L138.756 309.583Z" fill="#FFDC15"/>
<path d="M122.409 335.499L124.13 338.986L127.977 339.545L125.193 342.259L125.85 346.091L122.409 344.282L118.967 346.091L119.625 342.259L116.841 339.545L120.688 338.986L122.409 335.499Z" fill="#FFDC15"/>
<path d="M141.36 350.31L142.627 352.877L145.459 353.288L143.41 355.286L143.893 358.108L141.36 356.776L138.826 358.108L139.31 355.286L137.26 353.288L140.093 352.877L141.36 350.31Z" fill="#FFDC15"/>
<path d="M67.2241 444.632C52.2241 444.632 40.0641 449.632 40.0641 455.792V465.792C40.0641 471.962 52.2241 476.952 67.2241 476.952C82.2341 476.952 94.3941 471.962 94.3941 465.792V455.792C94.3941 449.632 82.2341 444.632 67.2241 444.632Z" fill="#004F72"/>
<path d="M120.365 446.462C120.365 443.07 118.44 440.32 116.065 440.32C115.824 440.32 115.59 440.355 115.36 440.409V440.406L115.252 440.432C115.231 440.438 115.209 440.441 115.188 440.448L80.5171 448.867L87.2101 461.536L116.657 452.545L116.656 452.538C118.75 452.127 120.365 449.567 120.365 446.462Z" fill="#004F72"/>
<path d="M67.2251 450.929C56.4581 450.929 47.7301 454.518 47.7301 458.939C47.7301 463.36 56.4581 466.942 67.2251 466.942C77.9991 466.942 86.7271 463.36 86.7271 458.939C86.7271 454.518 77.9991 450.929 67.2251 450.929Z" fill="#A5A7AA"/>
<path d="M67.2241 444.632C52.2241 444.632 40.0641 449.632 40.0641 455.792C40.0641 461.952 52.2241 466.942 67.2241 466.942C82.2341 466.942 94.3941 461.952 94.3941 455.792C94.3941 449.632 82.2341 444.632 67.2241 444.632ZM67.2241 462.672C56.4241 462.672 47.6741 459.072 47.6741 454.642C47.6741 450.202 56.4241 446.612 67.2241 446.612C78.0241 446.612 86.7841 450.202 86.7841 454.642C86.7841 459.072 78.0241 462.672 67.2241 462.672Z" fill="#056194"/>
<path d="M52.044 459.523C51.641 459.523 51.24 459.362 50.944 459.044C50.382 458.437 50.414 457.493 51.019 456.929C51.207 456.754 55.688 452.642 62.67 452.196C63.503 452.148 64.21 452.771 64.263 453.597C64.316 454.424 63.688 455.137 62.862 455.19C56.987 455.565 53.102 459.09 53.063 459.125C52.774 459.391 52.408 459.523 52.044 459.523Z" fill="white"/>
<path d="M69.745 453.4C69.745 454.252 68.86 454.942 67.768 454.942C66.676 454.942 65.791 454.252 65.791 453.4C65.791 452.549 66.676 451.858 67.768 451.858C68.86 451.858 69.745 452.549 69.745 453.4Z" fill="white"/>
<path d="M206.742 85.8916C206.287 85.8916 205.878 85.7324 205.514 85.414C205.196 85.0956 205.037 84.6862 205.037 84.1859V76.4759H183.817C183.362 76.4759 182.953 76.3167 182.589 75.9983C182.271 75.6799 182.111 75.2705 182.111 74.7702V68.2884C182.111 67.879 182.18 67.5151 182.316 67.1967C182.498 66.8328 182.68 66.4917 182.862 66.1732L202.717 39.2908C203.308 38.5175 204.15 38.1309 205.241 38.1309H215.134C215.635 38.1309 216.044 38.2901 216.363 38.6085C216.727 38.9269 216.908 39.3363 216.908 39.8366V66.3097H222.913C223.458 66.3097 223.891 66.4917 224.209 66.8555C224.527 67.1739 224.687 67.5606 224.687 68.0154V74.7702C224.687 75.2705 224.505 75.6799 224.141 75.9983C223.822 76.3167 223.436 76.4759 222.981 76.4759H216.908V84.1859C216.908 84.6862 216.727 85.0956 216.363 85.414C216.044 85.7324 215.635 85.8916 215.134 85.8916H206.742ZM193.847 66.7873H205.309V50.6851L193.847 66.7873ZM249.839 86.5739C246.564 86.5739 243.721 86.119 241.31 85.2093C238.899 84.2541 236.898 82.9577 235.306 81.3202C233.759 79.6827 232.577 77.7723 231.758 75.5889C230.939 73.4056 230.462 71.063 230.325 68.5613C230.28 67.3331 230.234 65.9458 230.189 64.3993C230.189 62.8073 230.189 61.2152 230.189 59.6232C230.234 57.9857 230.28 56.5301 230.325 55.2565C230.462 52.7548 230.939 50.435 231.758 48.2971C232.622 46.1137 233.85 44.2261 235.442 42.634C237.08 40.9965 239.081 39.7229 241.447 38.8132C243.857 37.9034 246.655 37.4486 249.839 37.4486C253.068 37.4486 255.866 37.9034 258.231 38.8132C260.596 39.7229 262.575 40.9965 264.167 42.634C265.805 44.2261 267.055 46.1137 267.92 48.2971C268.784 50.435 269.262 52.7548 269.352 55.2565C269.443 56.5301 269.489 57.9857 269.489 59.6232C269.534 61.2152 269.534 62.8073 269.489 64.3993C269.489 65.9458 269.443 67.3331 269.352 68.5613C269.262 71.063 268.784 73.4056 267.92 75.5889C267.101 77.7723 265.896 79.6827 264.304 81.3202C262.757 82.9577 260.778 84.2541 258.368 85.2093C256.002 86.119 253.159 86.5739 249.839 86.5739ZM249.839 76.6806C252.204 76.6806 253.91 75.9301 254.956 74.429C256.048 72.8825 256.616 70.8129 256.662 68.2201C256.753 66.901 256.798 65.5137 256.798 64.0581C256.844 62.6026 256.844 61.147 256.798 59.6914C256.798 58.2359 256.753 56.894 256.662 55.6659C256.616 53.1641 256.048 51.14 254.956 49.5935C253.91 48.0469 252.204 47.2509 249.839 47.2054C247.474 47.2509 245.768 48.0469 244.722 49.5935C243.675 51.14 243.107 53.1641 243.016 55.6659C242.97 56.894 242.925 58.2359 242.879 59.6914C242.879 61.147 242.879 62.6026 242.879 64.0581C242.925 65.5137 242.97 66.901 243.016 68.2201C243.107 70.8129 243.698 72.8825 244.79 74.429C245.882 75.9301 247.565 76.6806 249.839 76.6806ZM299.625 85.8916C299.17 85.8916 298.761 85.7324 298.397 85.414C298.079 85.0956 297.919 84.6862 297.919 84.1859V76.4759H276.7C276.245 76.4759 275.836 76.3167 275.472 75.9983C275.153 75.6799 274.994 75.2705 274.994 74.7702V68.2884C274.994 67.879 275.062 67.5151 275.199 67.1967C275.381 66.8328 275.563 66.4917 275.745 66.1732L295.6 39.2908C296.191 38.5175 297.032 38.1309 298.124 38.1309H308.017C308.518 38.1309 308.927 38.2901 309.245 38.6085C309.609 38.9269 309.791 39.3363 309.791 39.8366V66.3097H315.796C316.341 66.3097 316.773 66.4917 317.092 66.8555C317.41 67.1739 317.57 67.5606 317.57 68.0154V74.7702C317.57 75.2705 317.388 75.6799 317.024 75.9983C316.705 76.3167 316.319 76.4759 315.864 76.4759H309.791V84.1859C309.791 84.6862 309.609 85.0956 309.245 85.414C308.927 85.7324 308.518 85.8916 308.017 85.8916H299.625ZM286.73 66.7873H298.192V50.6851L286.73 66.7873Z" fill="#036195"/>
<path d="M181.533 126.234C181.241 126.234 180.994 126.132 180.79 125.928C180.586 125.724 180.484 125.477 180.484 125.185V96.7222C180.484 96.4015 180.586 96.1392 180.79 95.9352C180.994 95.7311 181.241 95.6291 181.533 95.6291H200.77C201.091 95.6291 201.353 95.7311 201.557 95.9352C201.761 96.1392 201.864 96.4015 201.864 96.7222V99.6078C201.864 99.8993 201.761 100.147 201.557 100.351C201.353 100.555 201.091 100.657 200.77 100.657H186.386V108.396H199.809C200.129 108.396 200.392 108.498 200.596 108.702C200.8 108.877 200.902 109.125 200.902 109.445V112.156C200.902 112.477 200.8 112.739 200.596 112.943C200.392 113.118 200.129 113.205 199.809 113.205H186.386V121.206H201.12C201.441 121.206 201.703 121.308 201.907 121.512C202.111 121.716 202.213 121.979 202.213 122.299V125.185C202.213 125.477 202.111 125.724 201.907 125.928C201.703 126.132 201.441 126.234 201.12 126.234H181.533ZM208.731 126.234C208.439 126.234 208.192 126.132 207.988 125.928C207.784 125.724 207.682 125.477 207.682 125.185V96.7222C207.682 96.4015 207.784 96.1392 207.988 95.9352C208.192 95.7311 208.439 95.6291 208.731 95.6291H220.055C223.582 95.6291 226.365 96.4453 228.406 98.0775C230.446 99.7098 231.466 102.085 231.466 105.204C231.466 107.361 230.927 109.154 229.849 110.582C228.799 112.01 227.386 113.045 225.608 113.686L231.991 124.835C232.078 125.01 232.122 125.17 232.122 125.316C232.122 125.579 232.02 125.797 231.816 125.972C231.641 126.147 231.437 126.234 231.204 126.234H227.225C226.73 126.234 226.351 126.103 226.088 125.841C225.826 125.579 225.622 125.316 225.476 125.054L219.836 114.692H213.759V125.185C213.759 125.477 213.657 125.724 213.453 125.928C213.278 126.132 213.03 126.234 212.71 126.234H208.731ZM213.759 109.751H219.924C221.702 109.751 223.028 109.358 223.902 108.571C224.777 107.755 225.214 106.618 225.214 105.16C225.214 103.703 224.777 102.566 223.902 101.75C223.057 100.905 221.731 100.482 219.924 100.482H213.759V109.751ZM238.149 126.234C237.858 126.234 237.61 126.132 237.406 125.928C237.202 125.724 237.1 125.477 237.1 125.185V96.7222C237.1 96.4015 237.202 96.1392 237.406 95.9352C237.61 95.7311 237.858 95.6291 238.149 95.6291H249.473C253 95.6291 255.784 96.4453 257.824 98.0775C259.864 99.7098 260.885 102.085 260.885 105.204C260.885 107.361 260.345 109.154 259.267 110.582C258.217 112.01 256.804 113.045 255.026 113.686L261.409 124.835C261.497 125.01 261.54 125.17 261.54 125.316C261.54 125.579 261.438 125.797 261.234 125.972C261.059 126.147 260.855 126.234 260.622 126.234H256.644C256.148 126.234 255.769 126.103 255.507 125.841C255.244 125.579 255.04 125.316 254.895 125.054L249.255 114.692H243.177V125.185C243.177 125.477 243.075 125.724 242.871 125.928C242.696 126.132 242.448 126.234 242.128 126.234H238.149ZM243.177 109.751H249.342C251.12 109.751 252.446 109.358 253.321 108.571C254.195 107.755 254.632 106.618 254.632 105.16C254.632 103.703 254.195 102.566 253.321 101.75C252.475 100.905 251.149 100.482 249.342 100.482H243.177V109.751ZM278.194 126.672C275.6 126.672 273.37 126.249 271.504 125.404C269.639 124.529 268.182 123.203 267.132 121.425C266.083 119.618 265.515 117.373 265.427 114.692C265.398 113.438 265.383 112.2 265.383 110.975C265.383 109.751 265.398 108.498 265.427 107.215C265.515 104.563 266.098 102.348 267.176 100.57C268.254 98.7917 269.726 97.4509 271.592 96.5473C273.487 95.6437 275.687 95.1919 278.194 95.1919C280.701 95.1919 282.901 95.6437 284.796 96.5473C286.691 97.4509 288.177 98.7917 289.256 100.57C290.334 102.348 290.917 104.563 291.004 107.215C291.063 108.498 291.092 109.751 291.092 110.975C291.092 112.2 291.063 113.438 291.004 114.692C290.917 117.373 290.349 119.618 289.299 121.425C288.25 123.203 286.778 124.529 284.883 125.404C283.018 126.249 280.788 126.672 278.194 126.672ZM278.194 121.644C280.089 121.644 281.633 121.09 282.828 119.982C284.023 118.845 284.665 117.009 284.752 114.473C284.81 113.191 284.84 112.01 284.84 110.932C284.84 109.824 284.81 108.644 284.752 107.39C284.694 105.7 284.373 104.33 283.79 103.28C283.236 102.202 282.479 101.43 281.517 100.963C280.555 100.468 279.447 100.22 278.194 100.22C276.97 100.22 275.877 100.468 274.915 100.963C273.953 101.43 273.18 102.202 272.598 103.28C272.044 104.33 271.738 105.7 271.679 107.39C271.65 108.644 271.636 109.824 271.636 110.932C271.636 112.01 271.65 113.191 271.679 114.473C271.767 117.009 272.408 118.845 273.603 119.982C274.798 121.09 276.328 121.644 278.194 121.644ZM297.882 126.234C297.591 126.234 297.343 126.132 297.139 125.928C296.935 125.724 296.833 125.477 296.833 125.185V96.7222C296.833 96.4015 296.935 96.1392 297.139 95.9352C297.343 95.7311 297.591 95.6291 297.882 95.6291H309.206C312.733 95.6291 315.517 96.4453 317.557 98.0775C319.598 99.7098 320.618 102.085 320.618 105.204C320.618 107.361 320.078 109.154 319 110.582C317.951 112.01 316.537 113.045 314.759 113.686L321.142 124.835C321.23 125.01 321.274 125.17 321.274 125.316C321.274 125.579 321.172 125.797 320.967 125.972C320.793 126.147 320.589 126.234 320.355 126.234H316.377C315.881 126.234 315.502 126.103 315.24 125.841C314.978 125.579 314.774 125.316 314.628 125.054L308.988 114.692H302.91V125.185C302.91 125.477 302.808 125.724 302.604 125.928C302.429 126.132 302.182 126.234 301.861 126.234H297.882ZM302.91 109.751H309.075C310.853 109.751 312.179 109.358 313.054 108.571C313.928 107.755 314.366 106.618 314.366 105.16C314.366 103.703 313.928 102.566 313.054 101.75C312.209 100.905 310.882 100.482 309.075 100.482H302.91V109.751Z" fill="#036195"/>
<path d="M333.976 132.803L358.908 86.5924H343.721L355.238 42.6934L326.509 96.3544H342.709L333.976 132.803Z" fill="#FFDC15"/>
<path d="M166.024 132.803L141.092 86.5924H156.279L144.762 42.6934L173.491 96.3544H157.291L166.024 132.803Z" fill="#FFDC15"/>
<path d="M144.218 144.926V143.906H151.339V144.926H148.354V153.401H147.204V144.926H144.218ZM154.06 149.117V153.401H152.966V143.906H154.06V147.393H154.153C154.32 147.025 154.57 146.733 154.904 146.516C155.241 146.297 155.689 146.187 156.248 146.187C156.734 146.187 157.159 146.284 157.523 146.479C157.888 146.671 158.171 146.966 158.372 147.365C158.576 147.76 158.678 148.264 158.678 148.876V153.401H157.584V148.95C157.584 148.385 157.437 147.947 157.143 147.638C156.853 147.326 156.449 147.17 155.933 147.17C155.574 147.17 155.253 147.246 154.969 147.397C154.687 147.549 154.465 147.77 154.301 148.06C154.14 148.351 154.06 148.703 154.06 149.117ZM163.665 153.55C162.979 153.55 162.387 153.398 161.89 153.095C161.395 152.789 161.013 152.363 160.744 151.816C160.479 151.266 160.346 150.626 160.346 149.896C160.346 149.167 160.479 148.524 160.744 147.968C161.013 147.408 161.387 146.972 161.866 146.66C162.349 146.345 162.911 146.187 163.554 146.187C163.925 146.187 164.291 146.249 164.653 146.373C165.015 146.496 165.344 146.697 165.64 146.975C165.937 147.25 166.174 147.615 166.35 148.07C166.526 148.524 166.614 149.083 166.614 149.748V150.212H161.125V149.266H165.501C165.501 148.864 165.421 148.505 165.26 148.19C165.103 147.875 164.877 147.626 164.583 147.444C164.293 147.261 163.95 147.17 163.554 147.17C163.118 147.17 162.741 147.278 162.423 147.495C162.107 147.708 161.865 147.986 161.695 148.329C161.525 148.672 161.44 149.04 161.44 149.433V150.063C161.44 150.601 161.533 151.057 161.718 151.431C161.907 151.802 162.168 152.085 162.502 152.279C162.835 152.471 163.223 152.567 163.665 152.567C163.953 152.567 164.212 152.527 164.444 152.446C164.679 152.363 164.882 152.239 165.052 152.075C165.222 151.908 165.353 151.701 165.446 151.454L166.503 151.751C166.392 152.109 166.205 152.425 165.942 152.697C165.679 152.966 165.355 153.176 164.968 153.327C164.582 153.476 164.148 153.55 163.665 153.55ZM171.951 156.072V146.28H173.008V147.411H173.137C173.218 147.288 173.329 147.13 173.471 146.938C173.617 146.743 173.824 146.57 174.093 146.419C174.365 146.264 174.732 146.187 175.196 146.187C175.796 146.187 176.324 146.337 176.782 146.637C177.239 146.937 177.596 147.362 177.853 147.912C178.109 148.462 178.238 149.111 178.238 149.859C178.238 150.613 178.109 151.267 177.853 151.82C177.596 152.371 177.241 152.797 176.786 153.1C176.332 153.4 175.808 153.55 175.215 153.55C174.757 153.55 174.391 153.474 174.116 153.323C173.841 153.168 173.629 152.993 173.481 152.799C173.332 152.601 173.218 152.437 173.137 152.307H173.045V156.072H171.951ZM173.026 149.841C173.026 150.378 173.105 150.853 173.263 151.264C173.42 151.672 173.651 151.992 173.953 152.224C174.256 152.452 174.627 152.567 175.066 152.567C175.524 152.567 175.905 152.446 176.211 152.205C176.521 151.961 176.752 151.633 176.907 151.222C177.065 150.808 177.143 150.348 177.143 149.841C177.143 149.34 177.066 148.889 176.912 148.487C176.76 148.082 176.53 147.762 176.221 147.527C175.915 147.289 175.53 147.17 175.066 147.17C174.621 147.17 174.247 147.283 173.944 147.509C173.641 147.731 173.413 148.043 173.258 148.445C173.103 148.844 173.026 149.309 173.026 149.841ZM182.002 153.568C181.551 153.568 181.141 153.483 180.774 153.313C180.406 153.14 180.114 152.891 179.897 152.567C179.681 152.239 179.573 151.844 179.573 151.38C179.573 150.972 179.653 150.641 179.814 150.388C179.975 150.131 180.189 149.93 180.458 149.785C180.727 149.64 181.024 149.532 181.349 149.46C181.676 149.386 182.005 149.328 182.336 149.284C182.769 149.229 183.12 149.187 183.389 149.159C183.661 149.128 183.858 149.077 183.982 149.006C184.109 148.935 184.172 148.811 184.172 148.635V148.598C184.172 148.141 184.047 147.785 183.797 147.532C183.549 147.278 183.174 147.152 182.67 147.152C182.148 147.152 181.738 147.266 181.441 147.495C181.145 147.723 180.936 147.968 180.815 148.227L179.777 147.856C179.962 147.424 180.21 147.087 180.519 146.845C180.831 146.601 181.171 146.431 181.539 146.335C181.91 146.237 182.274 146.187 182.633 146.187C182.862 146.187 183.124 146.215 183.421 146.271C183.721 146.323 184.01 146.433 184.288 146.6C184.569 146.767 184.803 147.019 184.988 147.356C185.174 147.692 185.266 148.144 185.266 148.709V153.401H184.172V152.437H184.116C184.042 152.592 183.919 152.757 183.746 152.933C183.572 153.109 183.342 153.259 183.055 153.383C182.767 153.506 182.416 153.568 182.002 153.568ZM182.169 152.585C182.602 152.585 182.967 152.5 183.263 152.33C183.563 152.16 183.789 151.941 183.94 151.672C184.095 151.403 184.172 151.12 184.172 150.824V149.822C184.126 149.878 184.024 149.929 183.866 149.975C183.712 150.018 183.532 150.057 183.328 150.091C183.127 150.122 182.931 150.15 182.739 150.174C182.551 150.196 182.398 150.215 182.28 150.23C181.996 150.267 181.73 150.327 181.483 150.411C181.239 150.491 181.041 150.613 180.89 150.777C180.741 150.938 180.667 151.157 180.667 151.436C180.667 151.816 180.808 152.103 181.089 152.298C181.373 152.49 181.733 152.585 182.169 152.585ZM190.138 156.22C189.609 156.22 189.155 156.152 188.775 156.016C188.395 155.883 188.078 155.707 187.824 155.488C187.574 155.271 187.375 155.04 187.226 154.792L188.098 154.18C188.197 154.31 188.322 154.458 188.474 154.625C188.625 154.795 188.832 154.942 189.095 155.066C189.361 155.193 189.708 155.256 190.138 155.256C190.713 155.256 191.187 155.117 191.561 154.839C191.935 154.56 192.122 154.125 192.122 153.531V152.085H192.03C191.949 152.214 191.835 152.375 191.687 152.567C191.541 152.755 191.331 152.924 191.056 153.072C190.784 153.217 190.416 153.29 189.953 153.29C189.378 153.29 188.861 153.154 188.404 152.882C187.95 152.61 187.59 152.214 187.324 151.695C187.061 151.176 186.93 150.545 186.93 149.804C186.93 149.074 187.058 148.439 187.314 147.898C187.571 147.354 187.928 146.934 188.385 146.637C188.843 146.337 189.371 146.187 189.971 146.187C190.435 146.187 190.803 146.264 191.075 146.419C191.35 146.57 191.56 146.743 191.705 146.938C191.853 147.13 191.968 147.288 192.048 147.411H192.159V146.28H193.217V153.605C193.217 154.217 193.077 154.715 192.799 155.098C192.524 155.485 192.153 155.767 191.687 155.947C191.223 156.129 190.707 156.22 190.138 156.22ZM190.101 152.307C190.54 152.307 190.911 152.207 191.214 152.006C191.517 151.805 191.747 151.516 191.904 151.139C192.062 150.762 192.141 150.31 192.141 149.785C192.141 149.272 192.064 148.819 191.909 148.427C191.755 148.034 191.526 147.726 191.223 147.504C190.92 147.281 190.546 147.17 190.101 147.17C189.637 147.17 189.251 147.288 188.942 147.522C188.636 147.757 188.406 148.073 188.251 148.468C188.1 148.864 188.024 149.303 188.024 149.785C188.024 150.28 188.101 150.717 188.256 151.097C188.413 151.474 188.645 151.771 188.951 151.987C189.26 152.201 189.643 152.307 190.101 152.307ZM198.205 153.55C197.519 153.55 196.927 153.398 196.43 153.095C195.935 152.789 195.553 152.363 195.284 151.816C195.019 151.266 194.886 150.626 194.886 149.896C194.886 149.167 195.019 148.524 195.284 147.968C195.553 147.408 195.927 146.972 196.406 146.66C196.889 146.345 197.451 146.187 198.094 146.187C198.465 146.187 198.831 146.249 199.193 146.373C199.555 146.496 199.884 146.697 200.18 146.975C200.477 147.25 200.714 147.615 200.89 148.07C201.066 148.524 201.154 149.083 201.154 149.748V150.212H195.665V149.266H200.041C200.041 148.864 199.961 148.505 199.8 148.19C199.643 147.875 199.417 147.626 199.123 147.444C198.833 147.261 198.49 147.17 198.094 147.17C197.658 147.17 197.281 147.278 196.963 147.495C196.648 147.708 196.405 147.986 196.235 148.329C196.065 148.672 195.98 149.04 195.98 149.433V150.063C195.98 150.601 196.073 151.057 196.258 151.431C196.447 151.802 196.708 152.085 197.042 152.279C197.375 152.471 197.763 152.567 198.205 152.567C198.493 152.567 198.752 152.527 198.984 152.446C199.219 152.363 199.422 152.239 199.592 152.075C199.762 151.908 199.893 151.701 199.986 151.454L201.043 151.751C200.932 152.109 200.745 152.425 200.482 152.697C200.219 152.966 199.895 153.176 199.508 153.327C199.122 153.476 198.688 153.55 198.205 153.55ZM207.195 156.072C207.01 156.072 206.844 156.056 206.699 156.026C206.554 155.998 206.453 155.97 206.398 155.942L206.676 154.978C206.942 155.046 207.177 155.07 207.381 155.052C207.585 155.033 207.766 154.942 207.923 154.778C208.084 154.618 208.231 154.356 208.364 153.995L208.568 153.438L205.934 146.28H207.121L209.087 151.955H209.161L211.127 146.28H212.314L209.291 154.44C209.155 154.808 208.987 155.112 208.786 155.353C208.585 155.597 208.351 155.778 208.086 155.896C207.823 156.013 207.526 156.072 207.195 156.072ZM216.396 153.55C215.753 153.55 215.189 153.397 214.704 153.091C214.222 152.785 213.845 152.357 213.573 151.806C213.304 151.256 213.169 150.613 213.169 149.878C213.169 149.136 213.304 148.488 213.573 147.935C213.845 147.382 214.222 146.952 214.704 146.646C215.189 146.34 215.753 146.187 216.396 146.187C217.039 146.187 217.602 146.34 218.084 146.646C218.569 146.952 218.946 147.382 219.215 147.935C219.487 148.488 219.623 149.136 219.623 149.878C219.623 150.613 219.487 151.256 219.215 151.806C218.946 152.357 218.569 152.785 218.084 153.091C217.602 153.397 217.039 153.55 216.396 153.55ZM216.396 152.567C216.885 152.567 217.286 152.442 217.602 152.191C217.917 151.941 218.15 151.612 218.302 151.204C218.453 150.796 218.529 150.354 218.529 149.878C218.529 149.402 218.453 148.958 218.302 148.547C218.15 148.136 217.917 147.804 217.602 147.55C217.286 147.297 216.885 147.17 216.396 147.17C215.908 147.17 215.506 147.297 215.191 147.55C214.876 147.804 214.642 148.136 214.491 148.547C214.339 148.958 214.264 149.402 214.264 149.878C214.264 150.354 214.339 150.796 214.491 151.204C214.642 151.612 214.876 151.941 215.191 152.191C215.506 152.442 215.908 152.567 216.396 152.567ZM225.781 150.49V146.28H226.876V153.401H225.781V152.196H225.707C225.54 152.558 225.281 152.865 224.928 153.119C224.576 153.369 224.131 153.494 223.593 153.494C223.148 153.494 222.752 153.397 222.406 153.202C222.06 153.004 221.788 152.707 221.59 152.312C221.392 151.913 221.293 151.411 221.293 150.805V146.28H222.388V150.731C222.388 151.25 222.533 151.664 222.823 151.973C223.117 152.282 223.491 152.437 223.945 152.437C224.217 152.437 224.494 152.367 224.775 152.228C225.06 152.089 225.298 151.876 225.489 151.589C225.684 151.301 225.781 150.935 225.781 150.49ZM232.552 153.401V146.28H233.609V147.356H233.683C233.813 147.003 234.048 146.717 234.388 146.498C234.728 146.278 235.111 146.169 235.538 146.169C235.618 146.169 235.718 146.17 235.839 146.173C235.96 146.176 236.051 146.181 236.113 146.187V147.3C236.075 147.291 235.99 147.277 235.858 147.258C235.728 147.237 235.59 147.226 235.445 147.226C235.099 147.226 234.79 147.298 234.518 147.444C234.249 147.586 234.035 147.784 233.878 148.037C233.723 148.287 233.646 148.573 233.646 148.895V153.401H232.552ZM240.179 153.55C239.492 153.55 238.901 153.398 238.403 153.095C237.908 152.789 237.527 152.363 237.258 151.816C236.992 151.266 236.859 150.626 236.859 149.896C236.859 149.167 236.992 148.524 237.258 147.968C237.527 147.408 237.901 146.972 238.38 146.66C238.862 146.345 239.424 146.187 240.067 146.187C240.438 146.187 240.805 146.249 241.166 146.373C241.528 146.496 241.857 146.697 242.154 146.975C242.45 147.25 242.687 147.615 242.863 148.07C243.039 148.524 243.127 149.083 243.127 149.748V150.212H237.638V149.266H242.015C242.015 148.864 241.934 148.505 241.774 148.19C241.616 147.875 241.39 147.626 241.097 147.444C240.806 147.261 240.463 147.17 240.067 147.17C239.632 147.17 239.254 147.278 238.936 147.495C238.621 147.708 238.378 147.986 238.208 148.329C238.038 148.672 237.953 149.04 237.953 149.433V150.063C237.953 150.601 238.046 151.057 238.231 151.431C238.42 151.802 238.681 152.085 239.015 152.279C239.349 152.471 239.737 152.567 240.179 152.567C240.466 152.567 240.726 152.527 240.958 152.446C241.192 152.363 241.395 152.239 241.565 152.075C241.735 151.908 241.866 151.701 241.959 151.454L243.016 151.751C242.905 152.109 242.718 152.425 242.455 152.697C242.192 152.966 241.868 153.176 241.481 153.327C241.095 153.476 240.661 153.55 240.179 153.55ZM249.651 156.072V152.307H249.558C249.478 152.437 249.363 152.601 249.215 152.799C249.067 152.993 248.855 153.168 248.58 153.323C248.305 153.474 247.938 153.55 247.481 153.55C246.888 153.55 246.364 153.4 245.909 153.1C245.455 152.797 245.099 152.371 244.843 151.82C244.586 151.267 244.458 150.613 244.458 149.859C244.458 149.111 244.586 148.462 244.843 147.912C245.099 147.362 245.456 146.937 245.914 146.637C246.371 146.337 246.9 146.187 247.5 146.187C247.963 146.187 248.329 146.264 248.598 146.419C248.87 146.57 249.077 146.743 249.22 146.938C249.365 147.13 249.478 147.288 249.558 147.411H249.688V146.28H250.745V156.072H249.651ZM247.629 152.567C248.068 152.567 248.439 152.452 248.742 152.224C249.045 151.992 249.275 151.672 249.433 151.264C249.591 150.853 249.669 150.378 249.669 149.841C249.669 149.309 249.592 148.844 249.438 148.445C249.283 148.043 249.054 147.731 248.751 147.509C248.448 147.283 248.074 147.17 247.629 147.17C247.166 147.17 246.779 147.289 246.47 147.527C246.164 147.762 245.934 148.082 245.779 148.487C245.628 148.889 245.552 149.34 245.552 149.841C245.552 150.348 245.63 150.808 245.784 151.222C245.942 151.633 246.174 151.961 246.48 152.205C246.789 152.446 247.172 152.567 247.629 152.567ZM257.236 150.49V146.28H258.33V153.401H257.236V152.196H257.162C256.995 152.558 256.735 152.865 256.383 153.119C256.031 153.369 255.585 153.494 255.048 153.494C254.603 153.494 254.207 153.397 253.861 153.202C253.514 153.004 253.242 152.707 253.045 152.312C252.847 151.913 252.748 151.411 252.748 150.805V146.28H253.842V150.731C253.842 151.25 253.987 151.664 254.278 151.973C254.572 152.282 254.946 152.437 255.4 152.437C255.672 152.437 255.949 152.367 256.23 152.228C256.514 152.089 256.752 151.876 256.944 151.589C257.139 151.301 257.236 150.935 257.236 150.49ZM263.32 153.55C262.634 153.55 262.042 153.398 261.544 153.095C261.05 152.789 260.668 152.363 260.399 151.816C260.133 151.266 260 150.626 260 149.896C260 149.167 260.133 148.524 260.399 147.968C260.668 147.408 261.042 146.972 261.521 146.66C262.003 146.345 262.566 146.187 263.209 146.187C263.58 146.187 263.946 146.249 264.308 146.373C264.669 146.496 264.998 146.697 265.295 146.975C265.592 147.25 265.828 147.615 266.005 148.07C266.181 148.524 266.269 149.083 266.269 149.748V150.212H260.779V149.266H265.156C265.156 148.864 265.076 148.505 264.915 148.19C264.757 147.875 264.532 147.626 264.238 147.444C263.948 147.261 263.604 147.17 263.209 147.17C262.773 147.17 262.396 147.278 262.078 147.495C261.762 147.708 261.52 147.986 261.35 148.329C261.18 148.672 261.095 149.04 261.095 149.433V150.063C261.095 150.601 261.187 151.057 261.373 151.431C261.561 151.802 261.823 152.085 262.156 152.279C262.49 152.471 262.878 152.567 263.32 152.567C263.608 152.567 263.867 152.527 264.099 152.446C264.334 152.363 264.536 152.239 264.706 152.075C264.876 151.908 265.008 151.701 265.1 151.454L266.158 151.751C266.046 152.109 265.859 152.425 265.597 152.697C265.334 152.966 265.009 153.176 264.623 153.327C264.237 153.476 263.802 153.55 263.32 153.55ZM272.978 147.875L271.995 148.153C271.933 147.989 271.842 147.83 271.721 147.675C271.604 147.518 271.443 147.388 271.239 147.286C271.035 147.184 270.774 147.133 270.456 147.133C270.02 147.133 269.657 147.233 269.366 147.434C269.078 147.632 268.935 147.884 268.935 148.19C268.935 148.462 269.034 148.677 269.232 148.835C269.429 148.992 269.738 149.124 270.159 149.229L271.216 149.488C271.853 149.643 272.327 149.879 272.639 150.198C272.951 150.513 273.108 150.919 273.108 151.417C273.108 151.825 272.99 152.19 272.755 152.511C272.523 152.833 272.199 153.086 271.782 153.272C271.364 153.457 270.879 153.55 270.326 153.55C269.599 153.55 268.998 153.392 268.522 153.077C268.046 152.762 267.745 152.301 267.618 151.695L268.657 151.436C268.755 151.819 268.942 152.106 269.218 152.298C269.496 152.49 269.859 152.585 270.307 152.585C270.817 152.585 271.222 152.477 271.522 152.261C271.825 152.041 271.976 151.779 271.976 151.473C271.976 151.225 271.89 151.018 271.717 150.851C271.544 150.681 271.278 150.555 270.919 150.471L269.732 150.193C269.08 150.038 268.601 149.799 268.295 149.474C267.992 149.147 267.841 148.737 267.841 148.246C267.841 147.844 267.953 147.488 268.179 147.179C268.408 146.87 268.718 146.628 269.111 146.451C269.507 146.275 269.955 146.187 270.456 146.187C271.16 146.187 271.714 146.342 272.115 146.651C272.52 146.96 272.808 147.368 272.978 147.875ZM277.852 146.28V147.207H274.161V146.28H277.852ZM275.237 144.574H276.331V151.361C276.331 151.67 276.376 151.902 276.465 152.057C276.558 152.208 276.676 152.31 276.818 152.363C276.963 152.412 277.116 152.437 277.277 152.437C277.397 152.437 277.496 152.431 277.574 152.418C277.651 152.403 277.713 152.391 277.759 152.381L277.982 153.364C277.907 153.392 277.804 153.42 277.671 153.448C277.538 153.479 277.37 153.494 277.166 153.494C276.856 153.494 276.554 153.428 276.257 153.295C275.963 153.162 275.719 152.959 275.524 152.687C275.333 152.415 275.237 152.072 275.237 151.658V144.574ZM282.407 153.55C281.721 153.55 281.129 153.398 280.631 153.095C280.137 152.789 279.755 152.363 279.486 151.816C279.22 151.266 279.087 150.626 279.087 149.896C279.087 149.167 279.22 148.524 279.486 147.968C279.755 147.408 280.129 146.972 280.608 146.66C281.09 146.345 281.653 146.187 282.296 146.187C282.667 146.187 283.033 146.249 283.395 146.373C283.756 146.496 284.085 146.697 284.382 146.975C284.679 147.25 284.915 147.615 285.091 148.07C285.268 148.524 285.356 149.083 285.356 149.748V150.212H279.866V149.266H284.243C284.243 148.864 284.163 148.505 284.002 148.19C283.844 147.875 283.619 147.626 283.325 147.444C283.034 147.261 282.691 147.17 282.296 147.17C281.86 147.17 281.483 147.278 281.164 147.495C280.849 147.708 280.607 147.986 280.437 148.329C280.267 148.672 280.182 149.04 280.182 149.433V150.063C280.182 150.601 280.274 151.057 280.46 151.431C280.648 151.802 280.909 152.085 281.243 152.279C281.577 152.471 281.965 152.567 282.407 152.567C282.694 152.567 282.954 152.527 283.186 152.446C283.421 152.363 283.623 152.239 283.793 152.075C283.963 151.908 284.095 151.701 284.187 151.454L285.244 151.751C285.133 152.109 284.946 152.425 284.683 152.697C284.421 152.966 284.096 153.176 283.71 153.327C283.323 153.476 282.889 153.55 282.407 153.55ZM289.709 153.55C289.116 153.55 288.592 153.4 288.138 153.1C287.683 152.797 287.328 152.371 287.071 151.82C286.815 151.267 286.686 150.613 286.686 149.859C286.686 149.111 286.815 148.462 287.071 147.912C287.328 147.362 287.685 146.937 288.142 146.637C288.6 146.337 289.128 146.187 289.728 146.187C290.191 146.187 290.558 146.264 290.827 146.419C291.099 146.57 291.306 146.743 291.448 146.938C291.593 147.13 291.706 147.288 291.786 147.411H291.879V143.906H292.973V153.401H291.916V152.307H291.786C291.706 152.437 291.592 152.601 291.443 152.799C291.295 152.993 291.083 153.168 290.808 153.323C290.533 153.474 290.167 153.55 289.709 153.55ZM289.858 152.567C290.297 152.567 290.668 152.452 290.97 152.224C291.273 151.992 291.504 151.672 291.661 151.264C291.819 150.853 291.898 150.378 291.898 149.841C291.898 149.309 291.82 148.844 291.666 148.445C291.511 148.043 291.283 147.731 290.98 147.509C290.677 147.283 290.303 147.17 289.858 147.17C289.394 147.17 289.008 147.289 288.699 147.527C288.393 147.762 288.162 148.082 288.008 148.487C287.856 148.889 287.781 149.34 287.781 149.841C287.781 150.348 287.858 150.808 288.012 151.222C288.17 151.633 288.402 151.961 288.708 152.205C289.017 152.446 289.4 152.567 289.858 152.567ZM300.415 153.401L298.245 146.28H299.395L300.934 151.732H301.008L302.529 146.28H303.697L305.2 151.714H305.274L306.813 146.28H307.963L305.793 153.401H304.717L303.16 147.93H303.048L301.49 153.401H300.415ZM311.505 153.568C311.054 153.568 310.644 153.483 310.276 153.313C309.909 153.14 309.616 152.891 309.4 152.567C309.184 152.239 309.076 151.844 309.076 151.38C309.076 150.972 309.156 150.641 309.317 150.388C309.477 150.131 309.692 149.93 309.961 149.785C310.23 149.64 310.527 149.532 310.851 149.46C311.179 149.386 311.508 149.328 311.839 149.284C312.272 149.229 312.622 149.187 312.891 149.159C313.163 149.128 313.361 149.077 313.485 149.006C313.611 148.935 313.675 148.811 313.675 148.635V148.598C313.675 148.141 313.55 147.785 313.299 147.532C313.052 147.278 312.676 147.152 312.173 147.152C311.65 147.152 311.241 147.266 310.944 147.495C310.647 147.723 310.439 147.968 310.318 148.227L309.28 147.856C309.465 147.424 309.712 147.087 310.021 146.845C310.334 146.601 310.674 146.431 311.041 146.335C311.412 146.237 311.777 146.187 312.136 146.187C312.364 146.187 312.627 146.215 312.924 146.271C313.224 146.323 313.513 146.433 313.791 146.6C314.072 146.767 314.305 147.019 314.491 147.356C314.676 147.692 314.769 148.144 314.769 148.709V153.401H313.675V152.437H313.619C313.545 152.592 313.421 152.757 313.248 152.933C313.075 153.109 312.845 153.259 312.557 153.383C312.27 153.506 311.919 153.568 311.505 153.568ZM311.672 152.585C312.105 152.585 312.469 152.5 312.766 152.33C313.066 152.16 313.292 151.941 313.443 151.672C313.598 151.403 313.675 151.12 313.675 150.824V149.822C313.628 149.878 313.526 149.929 313.369 149.975C313.214 150.018 313.035 150.057 312.831 150.091C312.63 150.122 312.434 150.15 312.242 150.174C312.054 150.196 311.901 150.215 311.783 150.23C311.499 150.267 311.233 150.327 310.986 150.411C310.742 150.491 310.544 150.613 310.392 150.777C310.244 150.938 310.17 151.157 310.17 151.436C310.17 151.816 310.31 152.103 310.592 152.298C310.876 152.49 311.236 152.585 311.672 152.585ZM321.811 147.875L320.828 148.153C320.766 147.989 320.675 147.83 320.554 147.675C320.437 147.518 320.276 147.388 320.072 147.286C319.868 147.184 319.607 147.133 319.288 147.133C318.853 147.133 318.489 147.233 318.199 147.434C317.911 147.632 317.768 147.884 317.768 148.19C317.768 148.462 317.867 148.677 318.064 148.835C318.262 148.992 318.571 149.124 318.992 149.229L320.049 149.488C320.685 149.643 321.16 149.879 321.472 150.198C321.784 150.513 321.94 150.919 321.94 151.417C321.94 151.825 321.823 152.19 321.588 152.511C321.356 152.833 321.032 153.086 320.614 153.272C320.197 153.457 319.712 153.55 319.159 153.55C318.432 153.55 317.831 153.392 317.355 153.077C316.879 152.762 316.578 152.301 316.451 151.695L317.489 151.436C317.588 151.819 317.775 152.106 318.05 152.298C318.329 152.49 318.692 152.585 319.14 152.585C319.65 152.585 320.055 152.477 320.355 152.261C320.658 152.041 320.809 151.779 320.809 151.473C320.809 151.225 320.723 151.018 320.549 150.851C320.376 150.681 320.111 150.555 319.752 150.471L318.565 150.193C317.913 150.038 317.434 149.799 317.128 149.474C316.825 149.147 316.673 148.737 316.673 148.246C316.673 147.844 316.786 147.488 317.012 147.179C317.241 146.87 317.551 146.628 317.944 146.451C318.339 146.275 318.788 146.187 319.288 146.187C319.993 146.187 320.546 146.342 320.948 146.651C321.353 146.96 321.641 147.368 321.811 147.875ZM328.354 149.117V153.401H327.26V146.28H328.317V147.393H328.409C328.576 147.031 328.83 146.74 329.17 146.521C329.51 146.298 329.949 146.187 330.486 146.187C330.969 146.187 331.391 146.286 331.752 146.484C332.114 146.679 332.395 146.975 332.596 147.374C332.797 147.77 332.897 148.27 332.897 148.876V153.401H331.803V148.95C331.803 148.391 331.658 147.955 331.367 147.643C331.077 147.328 330.678 147.17 330.171 147.17C329.822 147.17 329.51 147.246 329.235 147.397C328.963 147.549 328.748 147.77 328.59 148.06C328.433 148.351 328.354 148.703 328.354 149.117ZM337.79 153.55C337.147 153.55 336.583 153.397 336.098 153.091C335.615 152.785 335.238 152.357 334.966 151.806C334.697 151.256 334.563 150.613 334.563 149.878C334.563 149.136 334.697 148.488 334.966 147.935C335.238 147.382 335.615 146.952 336.098 146.646C336.583 146.34 337.147 146.187 337.79 146.187C338.433 146.187 338.995 146.34 339.478 146.646C339.963 146.952 340.34 147.382 340.609 147.935C340.881 148.488 341.017 149.136 341.017 149.878C341.017 150.613 340.881 151.256 340.609 151.806C340.34 152.357 339.963 152.785 339.478 153.091C338.995 153.397 338.433 153.55 337.79 153.55ZM337.79 152.567C338.278 152.567 338.68 152.442 338.995 152.191C339.311 151.941 339.544 151.612 339.695 151.204C339.847 150.796 339.923 150.354 339.923 149.878C339.923 149.402 339.847 148.958 339.695 148.547C339.544 148.136 339.311 147.804 338.995 147.55C338.68 147.297 338.278 147.17 337.79 147.17C337.302 147.17 336.9 147.297 336.584 147.55C336.269 147.804 336.036 148.136 335.884 148.547C335.733 148.958 335.657 149.402 335.657 149.878C335.657 150.354 335.733 150.796 335.884 151.204C336.036 151.612 336.269 151.941 336.584 152.191C336.9 152.442 337.302 152.567 337.79 152.567ZM345.784 146.28V147.207H342.094V146.28H345.784ZM343.169 144.574H344.264V151.361C344.264 151.67 344.308 151.902 344.398 152.057C344.491 152.208 344.608 152.31 344.75 152.363C344.896 152.412 345.049 152.437 345.209 152.437C345.33 152.437 345.429 152.431 345.506 152.418C345.583 152.403 345.645 152.391 345.692 152.381L345.914 153.364C345.84 153.392 345.736 153.42 345.603 153.448C345.471 153.479 345.302 153.494 345.098 153.494C344.789 153.494 344.486 153.428 344.189 153.295C343.896 153.162 343.652 152.959 343.457 152.687C343.265 152.415 343.169 152.072 343.169 151.658V144.574ZM354.273 146.28V147.207H350.435V146.28H354.273ZM351.584 153.401V145.297C351.584 144.889 351.68 144.549 351.872 144.277C352.063 144.005 352.312 143.801 352.618 143.665C352.924 143.529 353.247 143.461 353.587 143.461C353.856 143.461 354.076 143.483 354.246 143.526C354.416 143.569 354.542 143.609 354.626 143.646L354.311 144.592C354.255 144.574 354.178 144.55 354.079 144.523C353.983 144.495 353.856 144.481 353.699 144.481C353.337 144.481 353.076 144.572 352.915 144.754C352.757 144.937 352.679 145.204 352.679 145.557V153.401H351.584ZM358.407 153.55C357.764 153.55 357.2 153.397 356.715 153.091C356.232 152.785 355.855 152.357 355.583 151.806C355.314 151.256 355.18 150.613 355.18 149.878C355.18 149.136 355.314 148.488 355.583 147.935C355.855 147.382 356.232 146.952 356.715 146.646C357.2 146.34 357.764 146.187 358.407 146.187C359.05 146.187 359.612 146.34 360.094 146.646C360.58 146.952 360.957 147.382 361.226 147.935C361.498 148.488 361.634 149.136 361.634 149.878C361.634 150.613 361.498 151.256 361.226 151.806C360.957 152.357 360.58 152.785 360.094 153.091C359.612 153.397 359.05 153.55 358.407 153.55ZM358.407 152.567C358.895 152.567 359.297 152.442 359.612 152.191C359.928 151.941 360.161 151.612 360.312 151.204C360.464 150.796 360.54 150.354 360.54 149.878C360.54 149.402 360.464 148.958 360.312 148.547C360.161 148.136 359.928 147.804 359.612 147.55C359.297 147.297 358.895 147.17 358.407 147.17C357.918 147.17 357.517 147.297 357.201 147.55C356.886 147.804 356.653 148.136 356.501 148.547C356.35 148.958 356.274 149.402 356.274 149.878C356.274 150.354 356.35 150.796 356.501 151.204C356.653 151.612 356.886 151.941 357.201 152.191C357.517 152.442 357.918 152.567 358.407 152.567ZM367.792 150.49V146.28H368.886V153.401H367.792V152.196H367.718C367.551 152.558 367.291 152.865 366.939 153.119C366.587 153.369 366.142 153.494 365.604 153.494C365.159 153.494 364.763 153.397 364.417 153.202C364.071 153.004 363.799 152.707 363.601 152.312C363.403 151.913 363.304 151.411 363.304 150.805V146.28H364.398V150.731C364.398 151.25 364.544 151.664 364.834 151.973C365.128 152.282 365.502 152.437 365.956 152.437C366.228 152.437 366.505 152.367 366.786 152.228C367.07 152.089 367.308 151.876 367.5 151.589C367.695 151.301 367.792 150.935 367.792 150.49ZM371.985 149.117V153.401H370.89V146.28H371.947V147.393H372.04C372.207 147.031 372.461 146.74 372.801 146.521C373.141 146.298 373.579 146.187 374.117 146.187C374.599 146.187 375.021 146.286 375.383 146.484C375.745 146.679 376.026 146.975 376.227 147.374C376.428 147.77 376.528 148.27 376.528 148.876V153.401H375.434V148.95C375.434 148.391 375.289 147.955 374.998 147.643C374.708 147.328 374.309 147.17 373.802 147.17C373.453 147.17 373.141 147.246 372.865 147.397C372.593 147.549 372.379 147.77 372.221 148.06C372.063 148.351 371.985 148.703 371.985 149.117ZM381.217 153.55C380.623 153.55 380.099 153.4 379.645 153.1C379.191 152.797 378.835 152.371 378.579 151.82C378.322 151.267 378.194 150.613 378.194 149.859C378.194 149.111 378.322 148.462 378.579 147.912C378.835 147.362 379.192 146.937 379.65 146.637C380.107 146.337 380.636 146.187 381.235 146.187C381.699 146.187 382.065 146.264 382.334 146.419C382.606 146.57 382.813 146.743 382.955 146.938C383.101 147.13 383.214 147.288 383.294 147.411H383.387V143.906H384.481V153.401H383.424V152.307H383.294C383.214 152.437 383.099 152.601 382.951 152.799C382.802 152.993 382.591 153.168 382.316 153.323C382.041 153.474 381.674 153.55 381.217 153.55ZM381.365 152.567C381.804 152.567 382.175 152.452 382.478 152.224C382.781 151.992 383.011 151.672 383.169 151.264C383.326 150.853 383.405 150.378 383.405 149.841C383.405 149.309 383.328 148.844 383.173 148.445C383.019 148.043 382.79 147.731 382.487 147.509C382.184 147.283 381.81 147.17 381.365 147.17C380.901 147.17 380.515 147.289 380.206 147.527C379.9 147.762 379.67 148.082 379.515 148.487C379.364 148.889 379.288 149.34 379.288 149.841C379.288 150.348 379.365 150.808 379.52 151.222C379.677 151.633 379.909 151.961 380.215 152.205C380.524 152.446 380.908 152.567 381.365 152.567Z" fill="#404041"/>
</g>
</g>
<defs>
<linearGradient id="paint0_linear_3095_27" x1="91.0836" y1="99.6555" x2="136.081" y2="255.648" gradientUnits="userSpaceOnUse">
<stop stop-color="#B4B3B4" stop-opacity="0.1"/>
<stop offset="1" stop-color="#B4B3B4"/>
</linearGradient>
<clipPath id="clip0_3095_27">
<rect width="500" height="500" fill="white"/>
</clipPath>
</defs>
</svg>
