<svg width="93" height="95" viewBox="0 0 93 95" fill="none" xmlns="http://www.w3.org/2000/svg">
<path d="M68.1717 1.40234H24.1606C11.1691 1.40234 0.637451 11.981 0.637451 25.0304V69.2377C0.637451 82.2871 11.1691 92.8658 24.1606 92.8658H68.1717C81.1632 92.8658 91.6949 82.2871 91.6949 69.2377V25.0304C91.6949 11.981 81.1632 1.40234 68.1717 1.40234Z" fill="white" fill-opacity="0.74"/>
<path d="M68.1719 94.9085L68.354 94.9999L68.7789 94.6646L68.1719 94.9085Z" fill="#252020"/>
<path d="M46.1056 45.4572C53.9005 45.4572 60.2195 39.0008 60.2195 31.0365C60.2195 23.0721 53.9005 16.6157 46.1056 16.6157C38.3107 16.6157 31.9917 23.0721 31.9917 31.0365C31.9917 39.0008 38.3107 45.4572 46.1056 45.4572Z" fill="#403727"/>
<path d="M23.4019 77.6219C23.4019 59.817 33.6003 45.3962 46.1662 45.3962C58.7321 45.3962 68.9306 59.817 68.9306 77.6219" fill="#413320"/>
</svg>
