<svg width="93" height="95" viewBox="0 0 93 95" fill="none" xmlns="http://www.w3.org/2000/svg">
<g clip-path="url(#clip0_3096_26)">
<path d="M68.1717 1.40234H24.1606C11.1691 1.40234 0.637451 11.981 0.637451 25.0304V69.2377C0.637451 82.2871 11.1691 92.8658 24.1606 92.8658H68.1717C81.1632 92.8658 91.6949 82.2871 91.6949 69.2377V25.0304C91.6949 11.981 81.1632 1.40234 68.1717 1.40234Z" fill="white" fill-opacity="0.74"/>
<path d="M68.1719 94.9089L68.354 95.0003L68.7789 94.665L68.1719 94.9089Z" fill="#252020"/>
<path d="M46.1056 45.4567C53.9005 45.4567 60.2195 39.0003 60.2195 31.036C60.2195 23.0716 53.9005 16.6152 46.1056 16.6152C38.3107 16.6152 31.9917 23.0716 31.9917 31.036C31.9917 39.0003 38.3107 45.4567 46.1056 45.4567Z" fill="black"/>
<path d="M23.4019 77.6222C23.4019 59.8173 33.6003 45.3965 46.1662 45.3965C58.7321 45.3965 68.9306 59.8173 68.9306 77.6222" fill="black"/>
</g>
<defs>
<clipPath id="clip0_3096_26">
<rect width="93" height="95" fill="white"/>
</clipPath>
</defs>
</svg>
